<svg width="600" height="300" viewBox="0 0 600 300" fill="none" xmlns="http://www.w3.org/2000/svg">
<path d="M86.302 212.582C86.302 229.527 77.214 238 59.038 238H24.248V149.818H58.328C67.3213 149.818 73.9953 151.664 78.35 155.356C82.7047 158.953 84.882 164.728 84.882 172.68C84.882 180.632 81.616 186.691 75.084 190.856V191.708C82.5627 194.643 86.302 201.601 86.302 212.582ZM53.358 222.238C56.198 222.238 58.0913 221.623 59.038 220.392C60.0793 219.067 60.6 216.416 60.6 212.44C60.6 208.369 60.0793 205.529 59.038 203.92C57.9967 202.216 56.1033 201.364 53.358 201.364H48.814V222.238H53.358ZM53.5 187.59C55.6773 187.59 57.192 186.927 58.044 185.602C58.896 184.277 59.322 181.957 59.322 178.644C59.322 175.236 58.8487 172.869 57.902 171.544C57.05 170.124 55.5353 169.414 53.358 169.414H48.814V187.59H53.5ZM109.465 239.42C98.1993 239.42 92.5666 233.172 92.5666 220.676V169.982H116.707V214.854C116.707 217.221 117.748 218.404 119.831 218.404C122.481 218.404 124.706 217.741 126.505 216.416V169.982H150.361V237.716H127.783V232.746H127.215C122.008 237.195 116.091 239.42 109.465 239.42ZM210.114 187.732L209.404 217.126C209.404 218.925 209.83 220.155 210.682 220.818C211.628 221.386 213.19 221.67 215.368 221.67L213.238 238.852C207.747 239.231 204.718 239.42 204.15 239.42C197.144 239.42 192.695 237.006 190.802 232.178H190.092C186.589 237.006 181.193 239.42 173.904 239.42C168.318 239.42 164.011 237.621 160.982 234.024C158.047 230.427 156.58 225.504 156.58 219.256C156.58 211.399 158.994 205.955 163.822 202.926C168.744 199.897 176.46 197.909 186.968 196.962V193.554C186.968 190.903 185.642 189.578 182.992 189.578C178.448 189.578 171.348 190.951 161.692 193.696L158.142 172.964C170.259 169.84 180.341 168.278 188.388 168.278C196.434 168.278 202.067 169.84 205.286 172.964C208.504 176.088 210.114 181.011 210.114 187.732ZM182.708 222.806C186.21 222.806 187.962 220.96 187.962 217.268V210.31C184.459 210.783 181.95 211.541 180.436 212.582C179.016 213.529 178.306 215.185 178.306 217.552C178.306 221.055 179.773 222.806 182.708 222.806ZM220.699 222.38V146.978H244.129V214.854C244.129 216.463 244.461 217.599 245.123 218.262C245.881 218.925 247.159 219.256 248.957 219.256L247.111 239.42H239.301C233.053 239.42 228.367 238.142 225.243 235.586C222.214 232.935 220.699 228.533 220.699 222.38ZM305.104 187.732L304.394 217.126C304.394 218.925 304.82 220.155 305.672 220.818C306.619 221.386 308.181 221.67 310.358 221.67L308.228 238.852C302.737 239.231 299.708 239.42 299.14 239.42C292.135 239.42 287.685 237.006 285.792 232.178H285.082C281.579 237.006 276.183 239.42 268.894 239.42C263.309 239.42 259.001 237.621 255.972 234.024C253.037 230.427 251.57 225.504 251.57 219.256C251.57 211.399 253.984 205.955 258.812 202.926C263.735 199.897 271.45 197.909 281.958 196.962V193.554C281.958 190.903 280.633 189.578 277.982 189.578C273.438 189.578 266.338 190.951 256.682 193.696L253.132 172.964C265.249 169.84 275.331 168.278 283.378 168.278C291.425 168.278 297.057 169.84 300.276 172.964C303.495 176.088 305.104 181.011 305.104 187.732ZM277.698 222.806C281.201 222.806 282.952 220.96 282.952 217.268V210.31C279.449 210.783 276.941 211.541 275.426 212.582C274.006 213.529 273.296 215.185 273.296 217.552C273.296 221.055 274.763 222.806 277.698 222.806ZM354.03 238.142C347.024 238.994 340.918 239.42 335.712 239.42C330.6 239.42 326.576 238.095 323.642 235.444C320.802 232.699 319.382 228.013 319.382 221.386V188.442H312.566V170.834H320.518L321.796 157.77H343.238V170.834H355.876L354.882 188.442H343.096V216.7C343.096 218.688 344.042 219.682 345.936 219.682C346.125 219.682 349.06 219.54 354.74 219.256L354.03 238.142Z" fill="white"/>
<path d="M68.4 131H24.16V44.06H48.1V111.54H69.8L68.4 131ZM131.023 63.94L113.663 132.96C111.889 139.867 109.276 144.673 105.823 147.38C102.369 150.18 96.7227 151.58 88.8827 151.58H74.8827L72.7827 133.52H80.6227C83.796 133.52 85.3827 132.26 85.3827 129.74C85.3827 129.18 85.196 127.967 84.8227 126.1L68.7227 63.94H93.6427L99.9427 105.8H101.203L108.063 63.94H131.023ZM158.646 68.84C163.78 64.4533 169.426 62.26 175.586 62.26C181.746 62.26 186.04 63.7067 188.466 66.6C190.986 69.4 192.246 73.6467 192.246 79.34V131H168.446V87.32C168.446 84.9867 167.42 83.82 165.366 83.82C162.753 83.82 160.56 84.4733 158.786 85.78V131H135.266V63.94H156.686L158.086 68.84H158.646ZM259.978 131.84L250.598 132.4C243.411 132.4 239.025 130.02 237.438 125.26H236.738C233.658 130.02 228.945 132.4 222.598 132.4C214.198 132.4 208.271 129.46 204.818 123.58C201.458 117.7 199.778 108.973 199.778 97.4C199.778 85.7333 201.691 76.96 205.518 71.08C209.345 65.2 214.851 62.26 222.038 62.26C226.985 62.26 230.811 63.4267 233.518 65.76V41.26H256.898V110.42C256.898 112.193 257.271 113.407 258.018 114.06C258.765 114.62 260.118 114.9 262.078 114.9L259.978 131.84ZM228.198 82C226.238 82 224.931 83.2133 224.278 85.64C223.625 87.9733 223.298 91.38 223.298 95.86C223.298 100.247 223.345 103.233 223.438 104.82C223.531 106.407 223.718 108.04 223.998 109.72C224.371 111.307 224.885 112.427 225.538 113.08C226.285 113.64 227.451 113.92 229.038 113.92C230.718 113.92 232.445 113.5 234.218 112.66V83.68C232.258 82.56 230.251 82 228.198 82ZM266.217 97.26C266.217 84.94 268.55 76.0267 273.217 70.52C277.977 65.0133 285.35 62.26 295.337 62.26C305.417 62.26 312.743 64.9667 317.317 70.38C321.89 75.7933 324.177 84.7067 324.177 97.12C324.177 109.44 321.937 118.4 317.457 124C312.977 129.6 305.65 132.4 295.477 132.4C285.303 132.4 277.883 129.6 273.217 124C268.55 118.4 266.217 109.487 266.217 97.26ZM299.817 83.96C299.257 82.0933 297.763 81.16 295.337 81.16C292.91 81.16 291.37 82.0933 290.717 83.96C290.063 85.8267 289.737 89.7467 289.737 95.72V99.08C289.737 105.707 290.063 110 290.717 111.96C291.37 113.92 292.863 114.9 295.197 114.9C297.623 114.9 299.163 113.92 299.817 111.96C300.47 110 300.797 105.987 300.797 99.92V95.86C300.797 89.7933 300.47 85.8267 299.817 83.96ZM354.838 68.84C359.971 64.4533 365.618 62.26 371.778 62.26C377.938 62.26 382.231 63.7067 384.658 66.6C387.178 69.4 388.438 73.6467 388.438 79.34V131H364.638V87.32C364.638 84.9867 363.611 83.82 361.558 83.82C358.944 83.82 356.751 84.4733 354.978 85.78V131H331.458V63.94H352.878L354.278 68.84H354.838Z" fill="white"/>
<path d="M370.5 225.76C370.5 220.96 371.76 217.42 374.28 215.14C376.8 212.74 380.82 211.54 386.34 211.54C391.86 211.54 395.88 212.74 398.4 215.14C400.92 217.42 402.18 221.08 402.18 226.12C402.18 235.36 396.9 239.98 386.34 239.98C375.78 239.98 370.5 235.24 370.5 225.76ZM445.902 183.28C445.902 193.84 446.922 201.4 448.962 205.96C451.122 210.4 454.602 212.62 459.402 212.62C464.202 212.62 470.982 211.48 479.742 209.2L484.422 234.58C474.942 238.06 465.402 239.8 455.802 239.8C441.402 239.8 430.902 235.06 424.302 225.58C417.822 215.98 414.582 201.76 414.582 182.92C414.582 163.96 418.002 149.5 424.842 139.54C431.682 129.46 442.842 124.42 458.322 124.42C467.442 124.42 476.142 126.34 484.422 130.18L479.562 158.08C470.202 154.96 463.662 153.4 459.942 153.4C454.662 153.4 451.002 155.74 448.962 160.42C446.922 164.98 445.902 172.6 445.902 183.28ZM498.67 137.92C505.63 128.92 516.97 124.42 532.69 124.42C548.41 124.42 559.63 128.86 566.35 137.74C573.19 146.62 576.61 161.08 576.61 181.12C576.61 201.04 573.13 215.8 566.17 225.4C559.21 235 547.93 239.8 532.33 239.8C516.73 239.8 505.51 235.06 498.67 225.58C491.83 216.1 488.41 201.4 488.41 181.48C488.41 161.44 491.83 146.92 498.67 137.92ZM545.65 181.12C545.65 170.08 544.75 162.64 542.95 158.8C541.27 154.84 537.73 152.86 532.33 152.86C527.05 152.86 523.63 154.84 522.07 158.8C520.51 162.64 519.73 170.02 519.73 180.94V185.26C519.73 196.9 520.57 204.58 522.25 208.3C524.05 211.9 527.59 213.7 532.87 213.7C538.27 213.7 541.75 211.96 543.31 208.48C544.87 205 545.65 197.8 545.65 186.88V181.12Z" fill="white"/>
</svg>
