<svg xmlns="http://www.w3.org/2000/svg" version="1.1" xmlns:xlink="http://www.w3.org/1999/xlink" xmlns:svgjs="http://svgjs.com/svgjs" width="1440" height="560" preserveAspectRatio="none" viewBox="0 0 1440 560"><g mask="url(&quot;#SvgjsMask1013&quot;)" fill="none"><rect width="1440" height="560" x="0" y="0" fill="rgba(241, 240, 255, 1)"></rect><path d="M 0,542 C 57.6,462 172.8,191.2 288,142 C 403.2,92.8 460.8,315 576,296 C 691.2,277 748.8,31.2 864,47 C 979.2,62.8 1036.8,362.2 1152,375 C 1267.2,387.8 1382.4,163.8 1440,111L1440 560L0 560z" fill="rgba(206, 203, 255, 1)"></path><path d="M 0,193 C 96,230.6 288,370.2 480,381 C 672,391.8 768,265.8 960,247 C 1152,228.2 1344,279 1440,287L1440 560L0 560z" fill="rgba(228, 227, 255, 1)"></path></g><defs><mask id="SvgjsMask1013"><rect width="1440" height="560" fill="#ffffff"></rect></mask></defs></svg>