<svg xmlns="http://www.w3.org/2000/svg" version="1.1" xmlns:xlink="http://www.w3.org/1999/xlink" xmlns:svgjs="http://svgjs.com/svgjs" width="1920" height="1080" preserveAspectRatio="none" viewBox="0 0 1920 1080"><g mask="url(&quot;#SvgjsMask1113&quot;)" fill="none"><rect width="1920" height="1080" x="0" y="0" fill="rgba(251, 253, 255, 1)"></rect><path d="M1318.053,1168.014C1422.729,1167.276,1539.749,1154.636,1591.928,1063.889C1644.007,973.316,1602.176,862.078,1543.781,775.443C1492.931,700.001,1409.025,658.67,1318.053,657.565C1224.873,656.433,1135.234,692.928,1082.618,769.839C1021.825,858.703,982.605,975.12,1037.405,1067.8C1091.593,1159.444,1211.59,1168.765,1318.053,1168.014" fill="rgba(67, 63, 153, 0.24)" class="triangle-float3"></path><path d="M863.156,1029.222C912.384,1026.754,946.914,986.222,971.059,943.251C994.577,901.396,1011.027,851.012,986.475,809.755C962.309,769.148,910.407,761.38,863.156,761.932C817.141,762.469,770.204,774.256,744.726,812.577C716.465,855.084,710.243,910.312,734.727,955.101C760.138,1001.585,810.246,1031.875,863.156,1029.222" fill="rgba(67, 63, 153, 0.24)" class="triangle-float3"></path><path d="M308.606,555.829C403.505,560.393,502.526,523.856,548.273,440.586C592.767,359.597,559.489,264.065,512.663,184.402C466.646,106.116,399.412,32.138,308.606,32.854C218.677,33.563,151.838,107.945,110.048,187.577C71.571,260.896,66.501,346.422,105.799,419.305C147.252,496.185,221.364,551.633,308.606,555.829" fill="rgba(67, 63, 153, 0.24)" class="triangle-float1"></path><path d="M37.882,901.055C98.603,898.628,148.002,857.468,177.995,804.616C207.544,752.545,217.418,689.199,187.553,637.309C157.627,585.313,97.838,559.077,37.882,561.174C-18.54,563.148,-64.594,599.415,-94.688,647.182C-127.411,699.121,-151.488,762.233,-123.073,816.649C-93.018,874.205,-26.997,903.648,37.882,901.055" fill="rgba(67, 63, 153, 0.24)" class="triangle-float2"></path></g><defs><mask id="SvgjsMask1113"><rect width="1920" height="1080" fill="#ffffff"></rect></mask><style>
            @keyframes float1 {
                0%{transform: translate(0, 0)}
                50%{transform: translate(-10px, 0)}
                100%{transform: translate(0, 0)}
            }

            .triangle-float1 {
                animation: float1 5s infinite;
            }

            @keyframes float2 {
                0%{transform: translate(0, 0)}
                50%{transform: translate(-5px, -5px)}
                100%{transform: translate(0, 0)}
            }

            .triangle-float2 {
                animation: float2 4s infinite;
            }

            @keyframes float3 {
                0%{transform: translate(0, 0)}
                50%{transform: translate(0, -10px)}
                100%{transform: translate(0, 0)}
            }

            .triangle-float3 {
                animation: float3 6s infinite;
            }
        </style></defs></svg>