<svg id="visual" viewBox="0 0 960 540" width="960" height="540" xmlns="http://www.w3.org/2000/svg" xmlns:xlink="http://www.w3.org/1999/xlink" version="1.1"><rect x="0" y="0" width="960" height="540" fill="#ffffff"></rect><path d="M0 443L7 446.2C14 449.3 28 455.7 41.8 461C55.7 466.3 69.3 470.7 83.2 470.5C97 470.3 111 465.7 125 463C139 460.3 153 459.7 167 456.7C181 453.7 195 448.3 208.8 451.3C222.7 454.3 236.3 465.7 250.2 471.5C264 477.3 278 477.7 292 477.3C306 477 320 476 334 474.3C348 472.7 362 470.3 375.8 465.3C389.7 460.3 403.3 452.7 417.2 454.5C431 456.3 445 467.7 459 471C473 474.3 487 469.7 501 469.5C515 469.3 529 473.7 542.8 472C556.7 470.3 570.3 462.7 584.2 457.5C598 452.3 612 449.7 626 453C640 456.3 654 465.7 668 468.3C682 471 696 467 709.8 467.5C723.7 468 737.3 473 751.2 469.8C765 466.7 779 455.3 793 454.5C807 453.7 821 463.3 835 462.8C849 462.3 863 451.7 876.8 449.3C890.7 447 904.3 453 918.2 456C932 459 946 459 953 459L960 459L960 541L953 541C946 541 932 541 918.2 541C904.3 541 890.7 541 876.8 541C863 541 849 541 835 541C821 541 807 541 793 541C779 541 765 541 751.2 541C737.3 541 723.7 541 709.8 541C696 541 682 541 668 541C654 541 640 541 626 541C612 541 598 541 584.2 541C570.3 541 556.7 541 542.8 541C529 541 515 541 501 541C487 541 473 541 459 541C445 541 431 541 417.2 541C403.3 541 389.7 541 375.8 541C362 541 348 541 334 541C320 541 306 541 292 541C278 541 264 541 250.2 541C236.3 541 222.7 541 208.8 541C195 541 181 541 167 541C153 541 139 541 125 541C111 541 97 541 83.2 541C69.3 541 55.7 541 41.8 541C28 541 14 541 7 541L0 541Z" fill="#484fb6"></path><path d="M0 472L7 474C14 476 28 480 41.8 482.7C55.7 485.3 69.3 486.7 83.2 487.3C97 488 111 488 125 486.8C139 485.7 153 483.3 167 478.8C181 474.3 195 467.7 208.8 466C222.7 464.3 236.3 467.7 250.2 469.3C264 471 278 471 292 470C306 469 320 467 334 466.8C348 466.7 362 468.3 375.8 473C389.7 477.7 403.3 485.3 417.2 485.5C431 485.7 445 478.3 459 477.5C473 476.7 487 482.3 501 483.2C515 484 529 480 542.8 479.5C556.7 479 570.3 482 584.2 481.5C598 481 612 477 626 477.8C640 478.7 654 484.3 668 483.3C682 482.3 696 474.7 709.8 469.7C723.7 464.7 737.3 462.3 751.2 465.3C765 468.3 779 476.7 793 476C807 475.3 821 465.7 835 465.8C849 466 863 476 876.8 478C890.7 480 904.3 474 918.2 472.2C932 470.3 946 472.7 953 473.8L960 475L960 541L953 541C946 541 932 541 918.2 541C904.3 541 890.7 541 876.8 541C863 541 849 541 835 541C821 541 807 541 793 541C779 541 765 541 751.2 541C737.3 541 723.7 541 709.8 541C696 541 682 541 668 541C654 541 640 541 626 541C612 541 598 541 584.2 541C570.3 541 556.7 541 542.8 541C529 541 515 541 501 541C487 541 473 541 459 541C445 541 431 541 417.2 541C403.3 541 389.7 541 375.8 541C362 541 348 541 334 541C320 541 306 541 292 541C278 541 264 541 250.2 541C236.3 541 222.7 541 208.8 541C195 541 181 541 167 541C153 541 139 541 125 541C111 541 97 541 83.2 541C69.3 541 55.7 541 41.8 541C28 541 14 541 7 541L0 541Z" fill="#575cbf"></path><path d="M0 470L7 474.5C14 479 28 488 41.8 491.3C55.7 494.7 69.3 492.3 83.2 490.7C97 489 111 488 125 488.5C139 489 153 491 167 489.8C181 488.7 195 484.3 208.8 482.8C222.7 481.3 236.3 482.7 250.2 483.8C264 485 278 486 292 484.2C306 482.3 320 477.7 334 475.8C348 474 362 475 375.8 476.5C389.7 478 403.3 480 417.2 484.3C431 488.7 445 495.3 459 496.7C473 498 487 494 501 489.2C515 484.3 529 478.7 542.8 480C556.7 481.3 570.3 489.7 584.2 492.5C598 495.3 612 492.7 626 488C640 483.3 654 476.7 668 476.3C682 476 696 482 709.8 483.3C723.7 484.7 737.3 481.3 751.2 481.3C765 481.3 779 484.7 793 488.5C807 492.3 821 496.7 835 494C849 491.3 863 481.7 876.8 480.5C890.7 479.3 904.3 486.7 918.2 491C932 495.3 946 496.7 953 497.3L960 498L960 541L953 541C946 541 932 541 918.2 541C904.3 541 890.7 541 876.8 541C863 541 849 541 835 541C821 541 807 541 793 541C779 541 765 541 751.2 541C737.3 541 723.7 541 709.8 541C696 541 682 541 668 541C654 541 640 541 626 541C612 541 598 541 584.2 541C570.3 541 556.7 541 542.8 541C529 541 515 541 501 541C487 541 473 541 459 541C445 541 431 541 417.2 541C403.3 541 389.7 541 375.8 541C362 541 348 541 334 541C320 541 306 541 292 541C278 541 264 541 250.2 541C236.3 541 222.7 541 208.8 541C195 541 181 541 167 541C153 541 139 541 125 541C111 541 97 541 83.2 541C69.3 541 55.7 541 41.8 541C28 541 14 541 7 541L0 541Z" fill="#6569c8"></path><path d="M0 504L7 501.7C14 499.3 28 494.7 41.8 494.5C55.7 494.3 69.3 498.7 83.2 498C97 497.3 111 491.7 125 493.3C139 495 153 504 167 504.3C181 504.7 195 496.3 208.8 495.5C222.7 494.7 236.3 501.3 250.2 501.8C264 502.3 278 496.7 292 493.8C306 491 320 491 334 493.7C348 496.3 362 501.7 375.8 502.3C389.7 503 403.3 499 417.2 499.5C431 500 445 505 459 507.7C473 510.3 487 510.7 501 509C515 507.3 529 503.7 542.8 500.7C556.7 497.7 570.3 495.3 584.2 497.3C598 499.3 612 505.7 626 509C640 512.3 654 512.7 668 510.7C682 508.7 696 504.3 709.8 500.7C723.7 497 737.3 494 751.2 496.2C765 498.3 779 505.7 793 508C807 510.3 821 507.7 835 504.3C849 501 863 497 876.8 497.2C890.7 497.3 904.3 501.7 918.2 503C932 504.3 946 502.7 953 501.8L960 501L960 541L953 541C946 541 932 541 918.2 541C904.3 541 890.7 541 876.8 541C863 541 849 541 835 541C821 541 807 541 793 541C779 541 765 541 751.2 541C737.3 541 723.7 541 709.8 541C696 541 682 541 668 541C654 541 640 541 626 541C612 541 598 541 584.2 541C570.3 541 556.7 541 542.8 541C529 541 515 541 501 541C487 541 473 541 459 541C445 541 431 541 417.2 541C403.3 541 389.7 541 375.8 541C362 541 348 541 334 541C320 541 306 541 292 541C278 541 264 541 250.2 541C236.3 541 222.7 541 208.8 541C195 541 181 541 167 541C153 541 139 541 125 541C111 541 97 541 83.2 541C69.3 541 55.7 541 41.8 541C28 541 14 541 7 541L0 541Z" fill="#7377d1"></path><path d="M0 504L7 503.7C14 503.3 28 502.7 41.8 503.5C55.7 504.3 69.3 506.7 83.2 506.7C97 506.7 111 504.3 125 503C139 501.7 153 501.3 167 503.8C181 506.3 195 511.7 208.8 513.3C222.7 515 236.3 513 250.2 510.8C264 508.7 278 506.3 292 504.8C306 503.3 320 502.7 334 505C348 507.3 362 512.7 375.8 514.7C389.7 516.7 403.3 515.3 417.2 516.2C431 517 445 520 459 518C473 516 487 509 501 508.2C515 507.3 529 512.7 542.8 516.3C556.7 520 570.3 522 584.2 520.8C598 519.7 612 515.3 626 514.5C640 513.7 654 516.3 668 517.3C682 518.3 696 517.7 709.8 515.2C723.7 512.7 737.3 508.3 751.2 507.8C765 507.3 779 510.7 793 513.8C807 517 821 520 835 518.8C849 517.7 863 512.3 876.8 511C890.7 509.7 904.3 512.3 918.2 514C932 515.7 946 516.3 953 516.7L960 517L960 541L953 541C946 541 932 541 918.2 541C904.3 541 890.7 541 876.8 541C863 541 849 541 835 541C821 541 807 541 793 541C779 541 765 541 751.2 541C737.3 541 723.7 541 709.8 541C696 541 682 541 668 541C654 541 640 541 626 541C612 541 598 541 584.2 541C570.3 541 556.7 541 542.8 541C529 541 515 541 501 541C487 541 473 541 459 541C445 541 431 541 417.2 541C403.3 541 389.7 541 375.8 541C362 541 348 541 334 541C320 541 306 541 292 541C278 541 264 541 250.2 541C236.3 541 222.7 541 208.8 541C195 541 181 541 167 541C153 541 139 541 125 541C111 541 97 541 83.2 541C69.3 541 55.7 541 41.8 541C28 541 14 541 7 541L0 541Z" fill="#8085da"></path><path d="M0 521L7 522.2C14 523.3 28 525.7 41.8 526.7C55.7 527.7 69.3 527.3 83.2 527.7C97 528 111 529 125 529.3C139 529.7 153 529.3 167 527.7C181 526 195 523 208.8 521C222.7 519 236.3 518 250.2 517C264 516 278 515 292 515.8C306 516.7 320 519.3 334 520.8C348 522.3 362 522.7 375.8 524.2C389.7 525.7 403.3 528.3 417.2 526.7C431 525 445 519 459 516C473 513 487 513 501 515.3C515 517.7 529 522.3 542.8 525.5C556.7 528.7 570.3 530.3 584.2 529.3C598 528.3 612 524.7 626 521.7C640 518.7 654 516.3 668 518C682 519.7 696 525.3 709.8 528.7C723.7 532 737.3 533 751.2 531.5C765 530 779 526 793 524.5C807 523 821 524 835 523.5C849 523 863 521 876.8 520.2C890.7 519.3 904.3 519.7 918.2 521.7C932 523.7 946 527.3 953 529.2L960 531L960 541L953 541C946 541 932 541 918.2 541C904.3 541 890.7 541 876.8 541C863 541 849 541 835 541C821 541 807 541 793 541C779 541 765 541 751.2 541C737.3 541 723.7 541 709.8 541C696 541 682 541 668 541C654 541 640 541 626 541C612 541 598 541 584.2 541C570.3 541 556.7 541 542.8 541C529 541 515 541 501 541C487 541 473 541 459 541C445 541 431 541 417.2 541C403.3 541 389.7 541 375.8 541C362 541 348 541 334 541C320 541 306 541 292 541C278 541 264 541 250.2 541C236.3 541 222.7 541 208.8 541C195 541 181 541 167 541C153 541 139 541 125 541C111 541 97 541 83.2 541C69.3 541 55.7 541 41.8 541C28 541 14 541 7 541L0 541Z" fill="#8e93e3"></path></svg>