<svg id="visual" viewBox="0 0 960 540" width="960" height="540" xmlns="http://www.w3.org/2000/svg" xmlns:xlink="http://www.w3.org/1999/xlink" version="1.1"><rect x="0" y="0" width="960" height="540" fill="#FFFFFF"></rect><path d="M0 448L11.5 448.5C23 449 46 450 68.8 453.7C91.7 457.3 114.3 463.7 137.2 468.7C160 473.7 183 477.3 205.8 477.5C228.7 477.7 251.3 474.3 274.2 469C297 463.7 320 456.3 342.8 458.7C365.7 461 388.3 473 411.2 479.8C434 486.7 457 488.3 480 486.7C503 485 526 480 548.8 475.5C571.7 471 594.3 467 617.2 469.5C640 472 663 481 685.8 479.7C708.7 478.3 731.3 466.7 754.2 465.5C777 464.3 800 473.7 822.8 472.7C845.7 471.7 868.3 460.3 891.2 456.5C914 452.7 937 456.3 948.5 458.2L960 460L960 541L948.5 541C937 541 914 541 891.2 541C868.3 541 845.7 541 822.8 541C800 541 777 541 754.2 541C731.3 541 708.7 541 685.8 541C663 541 640 541 617.2 541C594.3 541 571.7 541 548.8 541C526 541 503 541 480 541C457 541 434 541 411.2 541C388.3 541 365.7 541 342.8 541C320 541 297 541 274.2 541C251.3 541 228.7 541 205.8 541C183 541 160 541 137.2 541C114.3 541 91.7 541 68.8 541C46 541 23 541 11.5 541L0 541Z" fill="#5358bd"></path><path d="M0 465L11.5 469.2C23 473.3 46 481.7 68.8 483.5C91.7 485.3 114.3 480.7 137.2 476.3C160 472 183 468 205.8 469C228.7 470 251.3 476 274.2 476C297 476 320 470 342.8 470C365.7 470 388.3 476 411.2 478.7C434 481.3 457 480.7 480 482.7C503 484.7 526 489.3 548.8 486.2C571.7 483 594.3 472 617.2 466.8C640 461.7 663 462.3 685.8 467C708.7 471.7 731.3 480.3 754.2 485.5C777 490.7 800 492.3 822.8 493.3C845.7 494.3 868.3 494.7 891.2 494.8C914 495 937 495 948.5 495L960 495L960 541L948.5 541C937 541 914 541 891.2 541C868.3 541 845.7 541 822.8 541C800 541 777 541 754.2 541C731.3 541 708.7 541 685.8 541C663 541 640 541 617.2 541C594.3 541 571.7 541 548.8 541C526 541 503 541 480 541C457 541 434 541 411.2 541C388.3 541 365.7 541 342.8 541C320 541 297 541 274.2 541C251.3 541 228.7 541 205.8 541C183 541 160 541 137.2 541C114.3 541 91.7 541 68.8 541C46 541 23 541 11.5 541L0 541Z" fill="#6e6dc5"></path><path d="M0 492L11.5 492.3C23 492.7 46 493.3 68.8 493C91.7 492.7 114.3 491.3 137.2 490.5C160 489.7 183 489.3 205.8 486.3C228.7 483.3 251.3 477.7 274.2 477C297 476.3 320 480.7 342.8 483.5C365.7 486.3 388.3 487.7 411.2 485.8C434 484 457 479 480 477.2C503 475.3 526 476.7 548.8 479.7C571.7 482.7 594.3 487.3 617.2 485.8C640 484.3 663 476.7 685.8 478.3C708.7 480 731.3 491 754.2 494.7C777 498.3 800 494.7 822.8 493.8C845.7 493 868.3 495 891.2 496.7C914 498.3 937 499.7 948.5 500.3L960 501L960 541L948.5 541C937 541 914 541 891.2 541C868.3 541 845.7 541 822.8 541C800 541 777 541 754.2 541C731.3 541 708.7 541 685.8 541C663 541 640 541 617.2 541C594.3 541 571.7 541 548.8 541C526 541 503 541 480 541C457 541 434 541 411.2 541C388.3 541 365.7 541 342.8 541C320 541 297 541 274.2 541C251.3 541 228.7 541 205.8 541C183 541 160 541 137.2 541C114.3 541 91.7 541 68.8 541C46 541 23 541 11.5 541L0 541Z" fill="#8782ce"></path><path d="M0 500L11.5 496.8C23 493.7 46 487.3 68.8 488C91.7 488.7 114.3 496.3 137.2 499.7C160 503 183 502 205.8 497.7C228.7 493.3 251.3 485.7 274.2 482.2C297 478.7 320 479.3 342.8 483.2C365.7 487 388.3 494 411.2 497C434 500 457 499 480 497.5C503 496 526 494 548.8 491.8C571.7 489.7 594.3 487.3 617.2 489.2C640 491 663 497 685.8 499.8C708.7 502.7 731.3 502.3 754.2 501.2C777 500 800 498 822.8 494.3C845.7 490.7 868.3 485.3 891.2 485.5C914 485.7 937 491.3 948.5 494.2L960 497L960 541L948.5 541C937 541 914 541 891.2 541C868.3 541 845.7 541 822.8 541C800 541 777 541 754.2 541C731.3 541 708.7 541 685.8 541C663 541 640 541 617.2 541C594.3 541 571.7 541 548.8 541C526 541 503 541 480 541C457 541 434 541 411.2 541C388.3 541 365.7 541 342.8 541C320 541 297 541 274.2 541C251.3 541 228.7 541 205.8 541C183 541 160 541 137.2 541C114.3 541 91.7 541 68.8 541C46 541 23 541 11.5 541L0 541Z" fill="#9e98d6"></path><path d="M0 508L11.5 507.5C23 507 46 506 68.8 503.3C91.7 500.7 114.3 496.3 137.2 496.2C160 496 183 500 205.8 503.8C228.7 507.7 251.3 511.3 274.2 509.5C297 507.7 320 500.3 342.8 498.2C365.7 496 388.3 499 411.2 502.2C434 505.3 457 508.7 480 508.5C503 508.3 526 504.7 548.8 504.3C571.7 504 594.3 507 617.2 505.2C640 503.3 663 496.7 685.8 497.2C708.7 497.7 731.3 505.3 754.2 508.2C777 511 800 509 822.8 507.8C845.7 506.7 868.3 506.3 891.2 505.3C914 504.3 937 502.7 948.5 501.8L960 501L960 541L948.5 541C937 541 914 541 891.2 541C868.3 541 845.7 541 822.8 541C800 541 777 541 754.2 541C731.3 541 708.7 541 685.8 541C663 541 640 541 617.2 541C594.3 541 571.7 541 548.8 541C526 541 503 541 480 541C457 541 434 541 411.2 541C388.3 541 365.7 541 342.8 541C320 541 297 541 274.2 541C251.3 541 228.7 541 205.8 541C183 541 160 541 137.2 541C114.3 541 91.7 541 68.8 541C46 541 23 541 11.5 541L0 541Z" fill="#b4aede"></path><path d="M0 499L11.5 499.7C23 500.3 46 501.7 68.8 504.7C91.7 507.7 114.3 512.3 137.2 514.7C160 517 183 517 205.8 517.5C228.7 518 251.3 519 274.2 517C297 515 320 510 342.8 507.2C365.7 504.3 388.3 503.7 411.2 504.8C434 506 457 509 480 509.5C503 510 526 508 548.8 506.3C571.7 504.7 594.3 503.3 617.2 503.3C640 503.3 663 504.7 685.8 506.8C708.7 509 731.3 512 754.2 514C777 516 800 517 822.8 514.8C845.7 512.7 868.3 507.3 891.2 505.3C914 503.3 937 504.7 948.5 505.3L960 506L960 541L948.5 541C937 541 914 541 891.2 541C868.3 541 845.7 541 822.8 541C800 541 777 541 754.2 541C731.3 541 708.7 541 685.8 541C663 541 640 541 617.2 541C594.3 541 571.7 541 548.8 541C526 541 503 541 480 541C457 541 434 541 411.2 541C388.3 541 365.7 541 342.8 541C320 541 297 541 274.2 541C251.3 541 228.7 541 205.8 541C183 541 160 541 137.2 541C114.3 541 91.7 541 68.8 541C46 541 23 541 11.5 541L0 541Z" fill="#cac5e6"></path><path d="M0 521L11.5 520.2C23 519.3 46 517.7 68.8 517.3C91.7 517 114.3 518 137.2 517.3C160 516.7 183 514.3 205.8 514C228.7 513.7 251.3 515.3 274.2 515C297 514.7 320 512.3 342.8 512.2C365.7 512 388.3 514 411.2 516.5C434 519 457 522 480 521.5C503 521 526 517 548.8 516.7C571.7 516.3 594.3 519.7 617.2 521.3C640 523 663 523 685.8 522.5C708.7 522 731.3 521 754.2 520.3C777 519.7 800 519.3 822.8 518.2C845.7 517 868.3 515 891.2 514C914 513 937 513 948.5 513L960 513L960 541L948.5 541C937 541 914 541 891.2 541C868.3 541 845.7 541 822.8 541C800 541 777 541 754.2 541C731.3 541 708.7 541 685.8 541C663 541 640 541 617.2 541C594.3 541 571.7 541 548.8 541C526 541 503 541 480 541C457 541 434 541 411.2 541C388.3 541 365.7 541 342.8 541C320 541 297 541 274.2 541C251.3 541 228.7 541 205.8 541C183 541 160 541 137.2 541C114.3 541 91.7 541 68.8 541C46 541 23 541 11.5 541L0 541Z" fill="#e0dded"></path><path d="M0 527L11.5 526.2C23 525.3 46 523.7 68.8 524.7C91.7 525.7 114.3 529.3 137.2 529.2C160 529 183 525 205.8 524.8C228.7 524.7 251.3 528.3 274.2 530.2C297 532 320 532 342.8 531.7C365.7 531.3 388.3 530.7 411.2 530.3C434 530 457 530 480 529.2C503 528.3 526 526.7 548.8 526C571.7 525.3 594.3 525.7 617.2 526.7C640 527.7 663 529.3 685.8 529.7C708.7 530 731.3 529 754.2 529.3C777 529.7 800 531.3 822.8 530.5C845.7 529.7 868.3 526.3 891.2 526.3C914 526.3 937 529.7 948.5 531.3L960 533L960 541L948.5 541C937 541 914 541 891.2 541C868.3 541 845.7 541 822.8 541C800 541 777 541 754.2 541C731.3 541 708.7 541 685.8 541C663 541 640 541 617.2 541C594.3 541 571.7 541 548.8 541C526 541 503 541 480 541C457 541 434 541 411.2 541C388.3 541 365.7 541 342.8 541C320 541 297 541 274.2 541C251.3 541 228.7 541 205.8 541C183 541 160 541 137.2 541C114.3 541 91.7 541 68.8 541C46 541 23 541 11.5 541L0 541Z" fill="#f5f5f5"></path></svg>