<svg width="600" height="178" viewBox="0 0 600 178" fill="none" xmlns="http://www.w3.org/2000/svg">
<g clip-path="url(#clip0_35_8)">
<path d="M315.96 131.42C315.96 126.5 317.52 122.36 320.64 119C323.88 115.52 328.14 113.78 333.42 113.78C338.7 113.78 342.9 115.52 346.02 119C349.26 122.36 350.88 126.5 350.88 131.42C350.88 136.34 349.26 140.54 346.02 144.02C342.9 147.38 338.7 149.06 333.42 149.06C328.14 149.06 323.88 147.38 320.64 144.02C317.52 140.54 315.96 136.34 315.96 131.42ZM448.755 52.76C448.755 55.76 447.975 58.46 446.415 60.86C444.855 63.14 443.055 64.94 441.015 66.26C438.015 64.22 434.715 62.48 431.115 61.04C427.515 59.6 423.375 58.88 418.695 58.88C412.575 58.88 407.355 60.2 403.035 62.84C398.835 65.36 395.595 69.08 393.315 74C391.155 78.8 390.075 84.62 390.075 91.46C390.075 102.02 392.715 110.06 397.995 115.58C403.395 121.1 410.835 123.86 420.315 123.86C425.235 123.86 429.375 123.2 432.735 121.88C436.215 120.56 439.515 119.06 442.635 117.38C444.675 118.94 446.235 120.92 447.315 123.32C448.515 125.72 449.115 128.48 449.115 131.6C449.115 134.36 448.395 136.88 446.955 139.16C445.515 141.44 443.055 143.36 439.575 144.92C437.415 145.88 434.355 146.84 430.395 147.8C426.435 148.76 421.635 149.24 415.995 149.24C405.195 149.24 395.355 147.2 386.475 143.12C377.715 139.04 370.695 132.74 365.415 124.22C360.255 115.7 357.675 104.78 357.675 91.46C357.675 78.98 360.195 68.48 365.235 59.96C370.275 51.32 377.055 44.78 385.575 40.34C394.215 35.78 403.695 33.5 414.015 33.5C421.335 33.5 427.575 34.34 432.735 36.02C437.895 37.7 441.855 39.98 444.615 42.86C447.375 45.74 448.755 49.04 448.755 52.76ZM572.689 91.28C572.689 103.76 570.169 114.32 565.129 122.96C560.209 131.6 553.429 138.14 544.789 142.58C536.269 147.02 526.549 149.24 515.629 149.24C504.709 149.24 494.929 147.02 486.289 142.58C477.769 138.14 471.049 131.6 466.129 122.96C461.209 114.32 458.749 103.76 458.749 91.28C458.749 78.8 461.269 68.3 466.309 59.78C471.349 51.14 478.129 44.6 486.649 40.16C495.289 35.72 504.949 33.5 515.629 33.5C526.309 33.5 535.969 35.72 544.609 40.16C553.249 44.6 560.089 51.14 565.129 59.78C570.169 68.3 572.689 78.8 572.689 91.28ZM540.289 91.28C540.289 80.6 538.069 72.56 533.629 67.16C529.189 61.64 523.189 58.88 515.629 58.88C508.309 58.88 502.369 61.58 497.809 66.98C493.369 72.38 491.149 80.48 491.149 91.28C491.149 102.2 493.369 110.36 497.809 115.76C502.369 121.16 508.369 123.86 515.809 123.86C523.249 123.86 529.189 121.16 533.629 115.76C538.069 110.36 540.289 102.2 540.289 91.28Z" fill="white"/>
<path d="M50.32 114.48V124.24H33.84V114.48H50.32ZM45.36 124.24L45.76 116.72C50.4533 116.72 54.3467 117.227 57.44 118.24C60.5333 119.253 62.8533 120.72 64.4 122.64C66 124.56 66.8 126.933 66.8 129.76C66.8 134.987 64.8267 138.88 60.88 141.44C56.9333 144 51.3067 145.28 44 145.28C42.7733 145.28 41.3067 145.227 39.6 145.12C37.8933 145.013 36.16 144.8 34.4 144.48C32.64 144.213 31.04 143.813 29.6 143.28C26.6667 142.16 25.2 140.213 25.2 137.44V100.08C25.2 98.96 25.52 98.1067 26.16 97.52C26.8 96.88 27.6267 96.3733 28.64 96C30.4533 95.36 32.72 94.9067 35.44 94.64C38.2133 94.32 41.0133 94.16 43.84 94.16C50.6133 94.16 55.84 95.3333 59.52 97.68C63.2533 99.9733 65.12 103.493 65.12 108.24C65.12 110.907 64.2933 113.147 62.64 114.96C61.04 116.72 58.7467 118.053 55.76 118.96C52.7733 119.813 49.2267 120.24 45.12 120.24L44.64 114.48C46.9333 114.48 48.5867 114.053 49.6 113.2C50.6667 112.347 51.2 111.093 51.2 109.44C51.2 108 50.5867 106.853 49.36 106C48.1867 105.147 46.4 104.72 44 104.72C43.2 104.72 42.2667 104.747 41.2 104.8C40.1867 104.853 39.3867 104.933 38.8 105.04V134C39.5467 134.213 40.5067 134.373 41.68 134.48C42.9067 134.533 44.0267 134.56 45.04 134.56C47.1733 134.56 48.9333 134.133 50.32 133.28C51.76 132.373 52.48 130.987 52.48 129.12C52.48 127.36 51.8667 126.107 50.64 125.36C49.4667 124.613 47.7067 124.24 45.36 124.24ZM96.0913 145.44C91.6113 145.44 87.7446 144.64 84.4913 143.04C81.2913 141.44 78.8113 139.2 77.0513 136.32C75.3446 133.44 74.4913 130.08 74.4913 126.24V121.36H88.4913V126C88.4913 128.507 89.1846 130.507 90.5713 132C92.0113 133.44 93.8513 134.16 96.0913 134.16C98.3313 134.16 100.145 133.44 101.531 132C102.971 130.507 103.691 128.507 103.691 126V121.36H117.691V126.24C117.691 130.08 116.811 133.44 115.051 136.32C113.345 139.2 110.865 141.44 107.611 143.04C104.411 144.64 100.571 145.44 96.0913 145.44ZM88.4913 123.52H74.4913V95.36C75.1313 95.2533 76.0646 95.12 77.2913 94.96C78.5713 94.7467 79.7979 94.64 80.9713 94.64C83.6379 94.64 85.5579 95.0933 86.7313 96C87.9046 96.9067 88.4913 98.6667 88.4913 101.28V123.52ZM117.691 123.68H103.691V95.36C104.331 95.2533 105.265 95.12 106.491 94.96C107.771 94.7467 108.998 94.64 110.171 94.64C112.838 94.64 114.758 95.0933 115.931 96C117.105 96.9067 117.691 98.6667 117.691 101.28V123.68ZM147.631 107.28H147.151C146.671 108.773 146.138 110.4 145.551 112.16C144.965 113.92 144.351 115.787 143.711 117.76C143.071 119.68 142.458 121.68 141.871 123.76L140.111 132.8C139.791 133.867 139.498 134.907 139.231 135.92C139.018 136.933 138.778 137.893 138.511 138.8C138.298 139.707 138.085 140.587 137.871 141.44C137.658 142.293 137.445 143.12 137.231 143.92C136.538 144.133 135.765 144.347 134.911 144.56C134.058 144.773 133.045 144.88 131.871 144.88C129.205 144.88 127.205 144.427 125.871 143.52C124.538 142.56 123.871 141.253 123.871 139.6C123.871 138.853 123.978 138.107 124.191 137.36C124.405 136.613 124.645 135.733 124.911 134.72C125.338 133.013 125.978 130.827 126.831 128.16C127.685 125.44 128.618 122.533 129.631 119.44C130.698 116.293 131.738 113.227 132.751 110.24C133.818 107.253 134.778 104.587 135.631 102.24C136.485 99.84 137.125 98.08 137.551 96.96C138.458 96.4267 139.845 95.92 141.711 95.44C143.578 94.96 145.418 94.72 147.231 94.72C149.898 94.72 152.271 95.12 154.351 95.92C156.431 96.6667 157.738 97.8933 158.271 99.6C159.231 102.32 160.245 105.52 161.311 109.2C162.431 112.827 163.551 116.64 164.671 120.64C165.845 124.587 166.965 128.453 168.031 132.24C169.098 135.973 170.031 139.333 170.831 142.32C170.191 143.013 169.231 143.6 167.951 144.08C166.671 144.56 165.151 144.8 163.391 144.8C160.778 144.8 158.965 144.373 157.951 143.52C156.938 142.613 156.191 141.253 155.711 139.44L153.711 131.76L152.111 123.52C151.578 121.44 151.045 119.44 150.511 117.52C149.978 115.6 149.471 113.787 148.991 112.08C148.511 110.32 148.058 108.72 147.631 107.28ZM134.111 133.92L139.631 123.12H157.231L158.911 133.92H134.111ZM177.388 108.64H191.388V143.52L184.828 144.24C182.534 144.24 180.721 143.573 179.388 142.24C178.054 140.907 177.388 139.093 177.388 136.8V108.64ZM184.828 144.24V132.96H209.708C210.081 133.547 210.428 134.32 210.748 135.28C211.068 136.24 211.228 137.28 211.228 138.4C211.228 140.373 210.801 141.84 209.948 142.8C209.094 143.76 207.921 144.24 206.428 144.24H184.828ZM191.388 127.12H177.388V95.36C178.028 95.2533 178.961 95.12 180.188 94.96C181.468 94.7467 182.694 94.64 183.868 94.64C186.534 94.64 188.454 95.0933 189.628 96C190.801 96.9067 191.388 98.6667 191.388 101.28V127.12ZM239.584 107.28H239.104C238.624 108.773 238.091 110.4 237.504 112.16C236.918 113.92 236.304 115.787 235.664 117.76C235.024 119.68 234.411 121.68 233.824 123.76L232.064 132.8C231.744 133.867 231.451 134.907 231.184 135.92C230.971 136.933 230.731 137.893 230.464 138.8C230.251 139.707 230.038 140.587 229.824 141.44C229.611 142.293 229.398 143.12 229.184 143.92C228.491 144.133 227.718 144.347 226.864 144.56C226.011 144.773 224.998 144.88 223.824 144.88C221.158 144.88 219.158 144.427 217.824 143.52C216.491 142.56 215.824 141.253 215.824 139.6C215.824 138.853 215.931 138.107 216.144 137.36C216.358 136.613 216.598 135.733 216.864 134.72C217.291 133.013 217.931 130.827 218.784 128.16C219.638 125.44 220.571 122.533 221.584 119.44C222.651 116.293 223.691 113.227 224.704 110.24C225.771 107.253 226.731 104.587 227.584 102.24C228.438 99.84 229.078 98.08 229.504 96.96C230.411 96.4267 231.798 95.92 233.664 95.44C235.531 94.96 237.371 94.72 239.184 94.72C241.851 94.72 244.224 95.12 246.304 95.92C248.384 96.6667 249.691 97.8933 250.224 99.6C251.184 102.32 252.198 105.52 253.264 109.2C254.384 112.827 255.504 116.64 256.624 120.64C257.798 124.587 258.918 128.453 259.984 132.24C261.051 135.973 261.984 139.333 262.784 142.32C262.144 143.013 261.184 143.6 259.904 144.08C258.624 144.56 257.104 144.8 255.344 144.8C252.731 144.8 250.918 144.373 249.904 143.52C248.891 142.613 248.144 141.253 247.664 139.44L245.664 131.76L244.064 123.52C243.531 121.44 242.998 119.44 242.464 117.52C241.931 115.6 241.424 113.787 240.944 112.08C240.464 110.32 240.011 108.72 239.584 107.28ZM226.064 133.92L231.584 123.12H249.184L250.864 133.92H226.064ZM276.128 106.72V95.52H302.768C303.141 96.1067 303.461 96.88 303.728 97.84C304.048 98.8 304.208 99.84 304.208 100.96C304.208 102.933 303.755 104.4 302.848 105.36C301.995 106.267 300.821 106.72 299.328 106.72H276.128ZM290.848 95.52V106.72H264.208C263.835 106.133 263.488 105.36 263.168 104.4C262.901 103.44 262.768 102.4 262.768 101.28C262.768 99.2533 263.195 97.7867 264.048 96.88C264.955 95.9733 266.155 95.52 267.648 95.52H290.848ZM276.288 104.56H290.288V143.92C289.701 144.08 288.795 144.24 287.568 144.4C286.341 144.56 285.088 144.64 283.808 144.64C281.035 144.64 279.088 144.16 277.968 143.2C276.848 142.187 276.288 140.453 276.288 138V104.56Z" fill="white"/>
<path d="M27.12 50.6H33.68V78.36L30.64 79C29.6267 79 28.7733 78.68 28.08 78.04C27.44 77.3467 27.12 76.4933 27.12 75.48V50.6ZM30.64 79V73.4H56.64C56.9067 73.6133 57.12 73.96 57.28 74.44C57.44 74.92 57.52 75.4533 57.52 76.04C57.52 76.9467 57.28 77.6667 56.8 78.2C56.32 78.7333 55.68 79 54.88 79H30.64ZM33.68 55.4H27.12V30.52C27.3867 30.4133 27.7867 30.3067 28.32 30.2C28.9067 30.04 29.52 29.96 30.16 29.96C31.3333 29.96 32.2133 30.2 32.8 30.68C33.3867 31.1067 33.68 31.8533 33.68 32.92V55.4ZM79.8075 61.56H74.1275C72.6342 59.32 71.0608 56.9733 69.4075 54.52C67.8075 52.0133 66.2075 49.48 64.6075 46.92C63.0608 44.36 61.5675 41.8533 60.1275 39.4C58.7408 36.8933 57.4875 34.5733 56.3675 32.44C56.5808 31.8533 56.9808 31.2933 57.5675 30.76C58.1542 30.1733 58.9275 29.88 59.8875 29.88C60.9008 29.88 61.6742 30.1467 62.2075 30.68C62.7942 31.2133 63.3808 32.0133 63.9675 33.08C64.8208 34.5733 65.8075 36.3333 66.9275 38.36C68.1008 40.3333 69.3008 42.3867 70.5275 44.52C71.7542 46.6533 72.9008 48.68 73.9675 50.6C75.0875 52.52 76.0475 54.12 76.8475 55.4H77.1675C79.0342 52.3067 80.7408 49.3733 82.2875 46.6C83.8342 43.8267 85.3275 41.1067 86.7675 38.44C88.2075 35.7733 89.6208 33.1067 91.0075 30.44C91.3275 30.2267 91.7275 30.0933 92.2075 30.04C92.6875 29.9333 93.1142 29.88 93.4875 29.88C94.5008 29.88 95.2475 30.12 95.7275 30.6C96.2608 31.08 96.5275 31.7467 96.5275 32.6C96.5275 33.1333 96.1008 34.28 95.2475 36.04C94.4475 37.7467 93.3008 39.9067 91.8075 42.52C90.3142 45.08 88.5542 47.9867 86.5275 51.24C84.5008 54.4933 82.2608 57.9333 79.8075 61.56ZM73.7275 58.44H80.2075V78.84C79.9408 78.9467 79.5142 79.0533 78.9275 79.16C78.3942 79.32 77.8342 79.4 77.2475 79.4C76.0742 79.4 75.1942 79.16 74.6075 78.68C74.0208 78.2 73.7275 77.4533 73.7275 76.44V58.44ZM105.792 35.88L111.232 35.4C111.445 37.0533 111.632 39 111.792 41.24C111.952 43.48 112.059 45.8 112.112 48.2C112.219 50.5467 112.272 52.7867 112.272 54.92V78.84C112.005 78.9467 111.579 79.0533 110.992 79.16C110.459 79.32 109.899 79.4 109.312 79.4C108.139 79.4 107.259 79.1867 106.672 78.76C106.085 78.28 105.792 77.5333 105.792 76.52V35.88ZM144.352 73.48L138.832 73.96C138.299 69.48 137.979 64.92 137.872 60.28C137.819 55.5867 137.792 51.0533 137.792 46.68V30.52C138.112 30.4133 138.539 30.3067 139.072 30.2C139.605 30.04 140.192 29.96 140.832 29.96C142.005 29.96 142.885 30.2 143.472 30.68C144.059 31.1067 144.352 31.8267 144.352 32.84V73.48ZM144.352 71.08V78.12C143.872 78.4933 143.259 78.8133 142.512 79.08C141.765 79.3467 140.939 79.48 140.032 79.48C138.752 79.48 137.659 79.24 136.752 78.76C135.845 78.2267 135.019 77.2933 134.272 75.96L119.072 50.36C118.272 48.92 117.392 47.3467 116.432 45.64C115.472 43.88 114.565 42.2267 113.712 40.68C112.859 39.08 112.192 37.7733 111.712 36.76L105.792 38.28V31.32C106.219 30.8933 106.805 30.5467 107.552 30.28C108.352 30.0133 109.205 29.88 110.112 29.88C111.392 29.88 112.485 30.1467 113.392 30.68C114.299 31.16 115.125 32.0667 115.872 33.4L131.152 59C132.005 60.44 132.885 62.04 133.792 63.8C134.752 65.5067 135.632 67.16 136.432 68.76C137.232 70.3067 137.872 71.5867 138.352 72.6L144.352 71.08ZM192.684 54.12C192.684 49.5333 191.778 45.8533 189.964 43.08C188.204 40.2533 185.831 38.2 182.844 36.92C179.911 35.5867 176.631 34.92 173.004 34.92C171.351 34.92 169.884 34.9733 168.604 35.08C167.324 35.1867 166.151 35.3467 165.084 35.56V73.64C166.364 73.96 167.724 74.1733 169.164 74.28C170.658 74.3867 172.178 74.44 173.724 74.44C179.964 74.44 184.684 72.7333 187.884 69.32C191.084 65.8533 192.684 60.7867 192.684 54.12ZM199.324 54.12C199.324 59.9333 198.258 64.76 196.124 68.6C194.044 72.3867 191.084 75.2133 187.244 77.08C183.458 78.9467 178.978 79.88 173.804 79.88C172.151 79.88 170.231 79.8 168.044 79.64C165.911 79.5333 163.884 79.1867 161.964 78.6C159.724 77.9067 158.604 76.68 158.604 74.92V33.8C158.604 32.9467 158.818 32.3067 159.244 31.88C159.724 31.4 160.391 31.0267 161.244 30.76C162.898 30.2267 164.764 29.88 166.844 29.72C168.924 29.56 171.004 29.48 173.084 29.48C178.311 29.48 182.871 30.4133 186.764 32.28C190.711 34.0933 193.778 36.8133 195.964 40.44C198.204 44.0667 199.324 48.6267 199.324 54.12ZM254.392 54.68C254.392 60.2267 253.379 64.8933 251.352 68.68C249.325 72.4133 246.552 75.24 243.032 77.16C239.565 79.08 235.619 80.04 231.192 80.04C226.819 80.04 222.872 79.08 219.352 77.16C215.832 75.24 213.059 72.4133 211.032 68.68C209.005 64.8933 207.992 60.2267 207.992 54.68C207.992 49.1333 209.032 44.4933 211.112 40.76C213.192 36.9733 215.965 34.12 219.432 32.2C222.952 30.28 226.872 29.32 231.192 29.32C235.565 29.32 239.485 30.28 242.952 32.2C246.472 34.12 249.245 36.9733 251.272 40.76C253.352 44.4933 254.392 49.1333 254.392 54.68ZM247.752 54.68C247.752 48.3333 246.232 43.4533 243.192 40.04C240.205 36.5733 236.205 34.84 231.192 34.84C226.232 34.84 222.232 36.5733 219.192 40.04C216.205 43.4533 214.712 48.3333 214.712 54.68C214.712 61.0267 216.205 65.9333 219.192 69.4C222.179 72.8133 226.179 74.52 231.192 74.52C236.259 74.52 240.285 72.8133 243.272 69.4C246.259 65.9333 247.752 61.0267 247.752 54.68ZM265.948 35.88L271.388 35.4C271.601 37.0533 271.788 39 271.948 41.24C272.108 43.48 272.215 45.8 272.268 48.2C272.375 50.5467 272.428 52.7867 272.428 54.92V78.84C272.161 78.9467 271.735 79.0533 271.148 79.16C270.615 79.32 270.055 79.4 269.468 79.4C268.295 79.4 267.415 79.1867 266.828 78.76C266.241 78.28 265.948 77.5333 265.948 76.52V35.88ZM304.508 73.48L298.988 73.96C298.455 69.48 298.135 64.92 298.028 60.28C297.975 55.5867 297.948 51.0533 297.948 46.68V30.52C298.268 30.4133 298.695 30.3067 299.228 30.2C299.761 30.04 300.348 29.96 300.988 29.96C302.161 29.96 303.041 30.2 303.628 30.68C304.215 31.1067 304.508 31.8267 304.508 32.84V73.48ZM304.508 71.08V78.12C304.028 78.4933 303.415 78.8133 302.668 79.08C301.921 79.3467 301.095 79.48 300.188 79.48C298.908 79.48 297.815 79.24 296.908 78.76C296.001 78.2267 295.175 77.2933 294.428 75.96L279.228 50.36C278.428 48.92 277.548 47.3467 276.588 45.64C275.628 43.88 274.721 42.2267 273.868 40.68C273.015 39.08 272.348 37.7733 271.868 36.76L265.948 38.28V31.32C266.375 30.8933 266.961 30.5467 267.708 30.28C268.508 30.0133 269.361 29.88 270.268 29.88C271.548 29.88 272.641 30.1467 273.548 30.68C274.455 31.16 275.281 32.0667 276.028 33.4L291.308 59C292.161 60.44 293.041 62.04 293.948 63.8C294.908 65.5067 295.788 67.16 296.588 68.76C297.388 70.3067 298.028 71.5867 298.508 72.6L304.508 71.08Z" fill="white"/>
</g>
<defs>
<clipPath id="clip0_35_8">
<rect width="600" height="178" fill="white"/>
</clipPath>
</defs>
</svg>
