<svg width="600" height="300" viewBox="0 0 600 300" fill="none" xmlns="http://www.w3.org/2000/svg">
<g clip-path="url(#clip0_11_48)">
<path d="M311.4 246.3L222 183.3V148.2L311.4 85.2V122.7L252 165.9L311.4 208.8V246.3ZM339.523 267L409.723 24H436.723L366.523 267H339.523ZM464.468 246.3V208.8L524.468 165.6L464.468 122.7V85.2L554.168 148.2V183.3L464.468 246.3Z" fill="#9BA2FF" fill-opacity="0.69"/>
<path d="M280.27 117V60.3H293.85C297.677 60.3 300.897 60.7667 303.51 61.7C306.17 62.5867 308.177 64.1267 309.53 66.32C310.93 68.5133 311.63 71.5 311.63 75.28C311.63 77.5667 311.42 79.62 311 81.44C310.58 83.26 309.857 84.8233 308.83 86.13C307.85 87.39 306.473 88.37 304.7 89.07L312.61 117H302.25L295.39 91.03H290.63V117H280.27ZM290.63 84.52H293.85C295.857 84.52 297.443 84.24 298.61 83.68C299.823 83.0733 300.687 82.14 301.2 80.88C301.713 79.5733 301.97 77.9167 301.97 75.91C301.97 73.0633 301.433 70.94 300.36 69.54C299.333 68.0933 297.35 67.37 294.41 67.37H290.63V84.52ZM319.508 117V60.3H343.308V67.58H329.868V83.89H340.438V91.1H329.868V109.86H343.448V117H319.508ZM357.36 117V95.37L345.88 60.3H355.54L362.54 82.77L369.12 60.3H378.57L367.23 95.37V117H357.36Z" fill="white"/>
<path d="M59.27 117V60.3H69.63V109.86H83.35V117H59.27ZM93.1566 117V95.37L81.6766 60.3H91.3366L98.3366 82.77L104.917 60.3H114.367L103.027 95.37V117H93.1566ZM119.358 117V60.3H126.568L140.358 92.64V60.3H148.898V117H142.038L128.178 83.12V117H119.358ZM157.502 117V60.3H170.872C175.492 60.3 179.086 60.93 181.652 62.19C184.266 63.45 186.109 65.3867 187.182 68C188.302 70.6133 188.862 73.9267 188.862 77.94V98.66C188.862 102.767 188.302 106.197 187.182 108.95C186.109 111.657 184.289 113.687 181.722 115.04C179.202 116.347 175.726 117 171.292 117H157.502ZM167.862 109.79H171.012C173.392 109.79 175.096 109.37 176.122 108.53C177.149 107.69 177.779 106.477 178.012 104.89C178.246 103.257 178.362 101.273 178.362 98.94V77.24C178.362 74.9533 178.199 73.11 177.872 71.71C177.546 70.31 176.869 69.2833 175.842 68.63C174.816 67.9767 173.159 67.65 170.872 67.65H167.862V109.79ZM211.867 117.77C207.854 117.77 204.657 117.023 202.277 115.53C199.897 114.037 198.194 111.89 197.167 109.09C196.141 106.29 195.627 102.977 195.627 99.15V77.94C195.627 74.1133 196.141 70.8467 197.167 68.14C198.194 65.3867 199.897 63.2867 202.277 61.84C204.657 60.3933 207.854 59.67 211.867 59.67C215.974 59.67 219.194 60.3933 221.527 61.84C223.907 63.2867 225.611 65.3867 226.637 68.14C227.711 70.8467 228.247 74.1133 228.247 77.94V99.22C228.247 103 227.711 106.29 226.637 109.09C225.611 111.843 223.907 113.99 221.527 115.53C219.194 117.023 215.974 117.77 211.867 117.77ZM211.867 110.14C213.594 110.14 214.854 109.767 215.647 109.02C216.487 108.273 217.047 107.247 217.327 105.94C217.607 104.633 217.747 103.21 217.747 101.67V75.56C217.747 73.9733 217.607 72.55 217.327 71.29C217.047 70.03 216.487 69.05 215.647 68.35C214.854 67.6033 213.594 67.23 211.867 67.23C210.234 67.23 208.997 67.6033 208.157 68.35C207.317 69.05 206.757 70.03 206.477 71.29C206.197 72.55 206.057 73.9733 206.057 75.56V101.67C206.057 103.21 206.174 104.633 206.407 105.94C206.687 107.247 207.247 108.273 208.087 109.02C208.927 109.767 210.187 110.14 211.867 110.14ZM235.911 117V60.3H243.121L256.911 92.64V60.3H265.451V117H258.591L244.731 83.12V117H235.911Z" fill="white"/>
<path d="M59.15 245V123.5H87.8C97.7 123.5 105.4 124.85 110.9 127.55C116.5 130.25 120.45 134.4 122.75 140C125.15 145.6 126.35 152.7 126.35 161.3V205.7C126.35 214.5 125.15 221.85 122.75 227.75C120.45 233.55 116.55 237.9 111.05 240.8C105.65 243.6 98.2 245 88.7 245H59.15ZM81.35 229.55H88.1C93.2 229.55 96.85 228.65 99.05 226.85C101.25 225.05 102.6 222.45 103.1 219.05C103.6 215.55 103.85 211.3 103.85 206.3V159.8C103.85 154.9 103.5 150.95 102.8 147.95C102.1 144.95 100.65 142.75 98.45 141.35C96.25 139.95 92.7 139.25 87.8 139.25H81.35V229.55ZM142.646 245V123.5H193.646V139.1H164.846V174.05H187.496V189.5H164.846V229.7H193.946V245H142.646ZM237.406 246.65C230.106 246.65 224.006 245.25 219.106 242.45C214.206 239.55 210.506 235.35 208.006 229.85C205.506 224.35 204.106 217.6 203.806 209.6L222.856 205.85C223.056 210.55 223.606 214.7 224.506 218.3C225.506 221.9 226.956 224.7 228.856 226.7C230.856 228.6 233.456 229.55 236.656 229.55C240.256 229.55 242.806 228.5 244.306 226.4C245.806 224.2 246.556 221.45 246.556 218.15C246.556 212.85 245.356 208.5 242.956 205.1C240.556 201.7 237.356 198.3 233.356 194.9L218.056 181.4C213.756 177.7 210.306 173.6 207.706 169.1C205.206 164.5 203.956 158.85 203.956 152.15C203.956 142.55 206.756 135.15 212.356 129.95C217.956 124.75 225.606 122.15 235.306 122.15C241.006 122.15 245.756 123.05 249.556 124.85C253.356 126.55 256.356 128.95 258.556 132.05C260.856 135.15 262.556 138.7 263.656 142.7C264.756 146.6 265.456 150.75 265.756 155.15L246.856 158.45C246.656 154.65 246.206 151.25 245.506 148.25C244.906 145.25 243.756 142.9 242.056 141.2C240.456 139.5 238.056 138.65 234.856 138.65C231.556 138.65 229.006 139.75 227.206 141.95C225.506 144.05 224.656 146.7 224.656 149.9C224.656 154 225.506 157.4 227.206 160.1C228.906 162.7 231.356 165.4 234.556 168.2L249.706 181.55C254.706 185.75 258.956 190.7 262.456 196.4C266.056 202 267.856 208.8 267.856 216.8C267.856 222.6 266.556 227.75 263.956 232.25C261.456 236.75 257.906 240.3 253.306 242.9C248.806 245.4 243.506 246.65 237.406 246.65ZM281.527 245V123.5H303.427V245H281.527ZM352.686 246.65C344.686 246.65 338.336 244.95 333.636 241.55C328.936 238.15 325.536 233.35 323.436 227.15C321.436 220.85 320.436 213.45 320.436 204.95V164.15C320.436 155.45 321.436 147.95 323.436 141.65C325.436 135.35 328.936 130.55 333.936 127.25C339.036 123.85 346.036 122.15 354.936 122.15C363.236 122.15 369.836 123.55 374.736 126.35C379.636 129.15 383.136 133.2 385.236 138.5C387.436 143.7 388.536 150.05 388.536 157.55V163.85H367.386V156.95C367.386 153.05 367.086 149.7 366.486 146.9C365.986 144.1 364.886 142 363.186 140.6C361.586 139.1 358.936 138.35 355.236 138.35C351.336 138.35 348.486 139.3 346.686 141.2C344.986 143.1 343.886 145.6 343.386 148.7C342.986 151.8 342.786 155.2 342.786 158.9V209.75C342.786 213.95 343.136 217.6 343.836 220.7C344.536 223.8 345.836 226.2 347.736 227.9C349.636 229.5 352.336 230.3 355.836 230.3C359.436 230.3 362.186 229.4 364.086 227.6C365.986 225.8 367.286 223.3 367.986 220.1C368.786 216.9 369.186 213.1 369.186 208.7V197.3H356.136V183.35H389.136V245H374.886L373.236 233C371.636 237 369.186 240.3 365.886 242.9C362.686 245.4 358.286 246.65 352.686 246.65ZM406.025 245V123.5H421.475L451.025 192.8V123.5H469.325V245H454.625L424.925 172.4V245H406.025Z" fill="white"/>
</g>
<defs>
<clipPath id="clip0_11_48">
<rect width="600" height="300" fill="white"/>
</clipPath>
</defs>
</svg>
