<svg width="600" height="300" viewBox="0 0 600 300" fill="none" xmlns="http://www.w3.org/2000/svg">
<g clip-path="url(#clip0_11_48)">
<path d="M311.4 246.3L222 183.3V148.2L311.4 85.2V122.7L252 165.9L311.4 208.8V246.3ZM339.523 267L409.723 24H436.723L366.523 267H339.523ZM464.468 246.3V208.8L524.468 165.6L464.468 122.7V85.2L554.168 148.2V183.3L464.468 246.3Z" fill="#9998FF"/>
<path d="M65.1 238V157H84.5C89.9667 157 94.5667 157.667 98.3 159C102.1 160.267 104.967 162.467 106.9 165.6C108.9 168.733 109.9 173 109.9 178.4C109.9 181.667 109.6 184.6 109 187.2C108.4 189.8 107.367 192.033 105.9 193.9C104.5 195.7 102.533 197.1 100 198.1L111.3 238H96.5L86.7 200.9H79.9V238H65.1ZM79.9 191.6H84.5C87.3667 191.6 89.6333 191.2 91.3 190.4C93.0333 189.533 94.2667 188.2 95 186.4C95.7333 184.533 96.1 182.167 96.1 179.3C96.1 175.233 95.3333 172.2 93.8 170.2C92.3333 168.133 89.5 167.1 85.3 167.1H79.9V191.6ZM121.155 238V157H155.155V167.4H135.955V190.7H151.055V201H135.955V227.8H155.355V238H121.155ZM175.228 238V207.1L158.828 157H172.628L182.628 189.1L192.028 157H205.528L189.328 207.1V238H175.228Z" fill="white"/>
<path d="M65.1 150V69H79.9V139.8H99.5V150H65.1ZM113.509 150V119.1L97.1094 69H110.909L120.909 101.1L130.309 69H143.809L127.609 119.1V150H113.509ZM150.94 150V69H161.24L180.94 115.2V69H193.14V150H183.34L163.54 101.6V150H150.94ZM205.432 150V69H224.532C231.132 69 236.265 69.9 239.932 71.7C243.665 73.5 246.299 76.2667 247.832 80C249.432 83.7333 250.232 88.4667 250.232 94.2V123.8C250.232 129.667 249.432 134.567 247.832 138.5C246.299 142.367 243.699 145.267 240.032 147.2C236.432 149.067 231.465 150 225.132 150H205.432ZM220.232 139.7H224.732C228.132 139.7 230.565 139.1 232.032 137.9C233.499 136.7 234.399 134.967 234.732 132.7C235.065 130.367 235.232 127.533 235.232 124.2V93.2C235.232 89.9333 234.999 87.3 234.532 85.3C234.065 83.3 233.099 81.8333 231.632 80.9C230.165 79.9667 227.799 79.5 224.532 79.5H220.232V139.7ZM283.096 151.1C277.363 151.1 272.796 150.033 269.396 147.9C265.996 145.767 263.563 142.7 262.096 138.7C260.629 134.7 259.896 129.967 259.896 124.5V94.2C259.896 88.7333 260.629 84.0667 262.096 80.2C263.563 76.2667 265.996 73.2667 269.396 71.2C272.796 69.1333 277.363 68.1 283.096 68.1C288.963 68.1 293.563 69.1333 296.896 71.2C300.296 73.2667 302.729 76.2667 304.196 80.2C305.729 84.0667 306.496 88.7333 306.496 94.2V124.6C306.496 130 305.729 134.7 304.196 138.7C302.729 142.633 300.296 145.7 296.896 147.9C293.563 150.033 288.963 151.1 283.096 151.1ZM283.096 140.2C285.563 140.2 287.363 139.667 288.496 138.6C289.696 137.533 290.496 136.067 290.896 134.2C291.296 132.333 291.496 130.3 291.496 128.1V90.8C291.496 88.5333 291.296 86.5 290.896 84.7C290.496 82.9 289.696 81.5 288.496 80.5C287.363 79.4333 285.563 78.9 283.096 78.9C280.763 78.9 278.996 79.4333 277.796 80.5C276.596 81.5 275.796 82.9 275.396 84.7C274.996 86.5 274.796 88.5333 274.796 90.8V128.1C274.796 130.3 274.963 132.333 275.296 134.2C275.696 136.067 276.496 137.533 277.696 138.6C278.896 139.667 280.696 140.2 283.096 140.2ZM317.444 150V69H327.744L347.444 115.2V69H359.644V150H349.844L330.044 101.6V150H317.444Z" fill="white"/>
</g>
<defs>
<clipPath id="clip0_11_48">
<rect width="600" height="300" fill="white"/>
</clipPath>
</defs>
</svg>
