<svg width="600" height="300" viewBox="0 0 600 300" fill="none" xmlns="http://www.w3.org/2000/svg">
<path d="M315.96 191.42C315.96 186.5 317.52 182.36 320.64 179C323.88 175.52 328.14 173.78 333.42 173.78C338.7 173.78 342.9 175.52 346.02 179C349.26 182.36 350.88 186.5 350.88 191.42C350.88 196.34 349.26 200.54 346.02 204.02C342.9 207.38 338.7 209.06 333.42 209.06C328.14 209.06 323.88 207.38 320.64 204.02C317.52 200.54 315.96 196.34 315.96 191.42ZM448.755 112.76C448.755 115.76 447.975 118.46 446.415 120.86C444.855 123.14 443.055 124.94 441.015 126.26C438.015 124.22 434.715 122.48 431.115 121.04C427.515 119.6 423.375 118.88 418.695 118.88C412.575 118.88 407.355 120.2 403.035 122.84C398.835 125.36 395.595 129.08 393.315 134C391.155 138.8 390.075 144.62 390.075 151.46C390.075 162.02 392.715 170.06 397.995 175.58C403.395 181.1 410.835 183.86 420.315 183.86C425.235 183.86 429.375 183.2 432.735 181.88C436.215 180.56 439.515 179.06 442.635 177.38C444.675 178.94 446.235 180.92 447.315 183.32C448.515 185.72 449.115 188.48 449.115 191.6C449.115 194.36 448.395 196.88 446.955 199.16C445.515 201.44 443.055 203.36 439.575 204.92C437.415 205.88 434.355 206.84 430.395 207.8C426.435 208.76 421.635 209.24 415.995 209.24C405.195 209.24 395.355 207.2 386.475 203.12C377.715 199.04 370.695 192.74 365.415 184.22C360.255 175.7 357.675 164.78 357.675 151.46C357.675 138.98 360.195 128.48 365.235 119.96C370.275 111.32 377.055 104.78 385.575 100.34C394.215 95.78 403.695 93.5 414.015 93.5C421.335 93.5 427.575 94.34 432.735 96.02C437.895 97.7 441.855 99.98 444.615 102.86C447.375 105.74 448.755 109.04 448.755 112.76ZM572.689 151.28C572.689 163.76 570.169 174.32 565.129 182.96C560.209 191.6 553.429 198.14 544.789 202.58C536.269 207.02 526.549 209.24 515.629 209.24C504.709 209.24 494.929 207.02 486.289 202.58C477.769 198.14 471.049 191.6 466.129 182.96C461.209 174.32 458.749 163.76 458.749 151.28C458.749 138.8 461.269 128.3 466.309 119.78C471.349 111.14 478.129 104.6 486.649 100.16C495.289 95.72 504.949 93.5 515.629 93.5C526.309 93.5 535.969 95.72 544.609 100.16C553.249 104.6 560.089 111.14 565.129 119.78C570.169 128.3 572.689 138.8 572.689 151.28ZM540.289 151.28C540.289 140.6 538.069 132.56 533.629 127.16C529.189 121.64 523.189 118.88 515.629 118.88C508.309 118.88 502.369 121.58 497.809 126.98C493.369 132.38 491.149 140.48 491.149 151.28C491.149 162.2 493.369 170.36 497.809 175.76C502.369 181.16 508.369 183.86 515.809 183.86C523.249 183.86 529.189 181.16 533.629 175.76C538.069 170.36 540.289 162.2 540.289 151.28Z" fill="white"/>
<path d="M50.32 174.48V184.24H33.84V174.48H50.32ZM45.36 184.24L45.76 176.72C50.4533 176.72 54.3467 177.227 57.44 178.24C60.5333 179.253 62.8533 180.72 64.4 182.64C66 184.56 66.8 186.933 66.8 189.76C66.8 194.987 64.8267 198.88 60.88 201.44C56.9333 204 51.3067 205.28 44 205.28C42.7733 205.28 41.3067 205.227 39.6 205.12C37.8933 205.013 36.16 204.8 34.4 204.48C32.64 204.213 31.04 203.813 29.6 203.28C26.6667 202.16 25.2 200.213 25.2 197.44V160.08C25.2 158.96 25.52 158.107 26.16 157.52C26.8 156.88 27.6267 156.373 28.64 156C30.4533 155.36 32.72 154.907 35.44 154.64C38.2133 154.32 41.0133 154.16 43.84 154.16C50.6133 154.16 55.84 155.333 59.52 157.68C63.2533 159.973 65.12 163.493 65.12 168.24C65.12 170.907 64.2933 173.147 62.64 174.96C61.04 176.72 58.7467 178.053 55.76 178.96C52.7733 179.813 49.2267 180.24 45.12 180.24L44.64 174.48C46.9333 174.48 48.5867 174.053 49.6 173.2C50.6667 172.347 51.2 171.093 51.2 169.44C51.2 168 50.5867 166.853 49.36 166C48.1867 165.147 46.4 164.72 44 164.72C43.2 164.72 42.2667 164.747 41.2 164.8C40.1867 164.853 39.3867 164.933 38.8 165.04V194C39.5467 194.213 40.5067 194.373 41.68 194.48C42.9067 194.533 44.0267 194.56 45.04 194.56C47.1733 194.56 48.9333 194.133 50.32 193.28C51.76 192.373 52.48 190.987 52.48 189.12C52.48 187.36 51.8667 186.107 50.64 185.36C49.4667 184.613 47.7067 184.24 45.36 184.24ZM96.0913 205.44C91.6113 205.44 87.7446 204.64 84.4913 203.04C81.2913 201.44 78.8113 199.2 77.0513 196.32C75.3446 193.44 74.4913 190.08 74.4913 186.24V181.36H88.4913V186C88.4913 188.507 89.1846 190.507 90.5713 192C92.0113 193.44 93.8513 194.16 96.0913 194.16C98.3313 194.16 100.145 193.44 101.531 192C102.971 190.507 103.691 188.507 103.691 186V181.36H117.691V186.24C117.691 190.08 116.811 193.44 115.051 196.32C113.345 199.2 110.865 201.44 107.611 203.04C104.411 204.64 100.571 205.44 96.0913 205.44ZM88.4913 183.52H74.4913V155.36C75.1313 155.253 76.0646 155.12 77.2913 154.96C78.5713 154.747 79.7979 154.64 80.9713 154.64C83.6379 154.64 85.5579 155.093 86.7313 156C87.9046 156.907 88.4913 158.667 88.4913 161.28V183.52ZM117.691 183.68H103.691V155.36C104.331 155.253 105.265 155.12 106.491 154.96C107.771 154.747 108.998 154.64 110.171 154.64C112.838 154.64 114.758 155.093 115.931 156C117.105 156.907 117.691 158.667 117.691 161.28V183.68ZM147.631 167.28H147.151C146.671 168.773 146.138 170.4 145.551 172.16C144.965 173.92 144.351 175.787 143.711 177.76C143.071 179.68 142.458 181.68 141.871 183.76L140.111 192.8C139.791 193.867 139.498 194.907 139.231 195.92C139.018 196.933 138.778 197.893 138.511 198.8C138.298 199.707 138.085 200.587 137.871 201.44C137.658 202.293 137.445 203.12 137.231 203.92C136.538 204.133 135.765 204.347 134.911 204.56C134.058 204.773 133.045 204.88 131.871 204.88C129.205 204.88 127.205 204.427 125.871 203.52C124.538 202.56 123.871 201.253 123.871 199.6C123.871 198.853 123.978 198.107 124.191 197.36C124.405 196.613 124.645 195.733 124.911 194.72C125.338 193.013 125.978 190.827 126.831 188.16C127.685 185.44 128.618 182.533 129.631 179.44C130.698 176.293 131.738 173.227 132.751 170.24C133.818 167.253 134.778 164.587 135.631 162.24C136.485 159.84 137.125 158.08 137.551 156.96C138.458 156.427 139.845 155.92 141.711 155.44C143.578 154.96 145.418 154.72 147.231 154.72C149.898 154.72 152.271 155.12 154.351 155.92C156.431 156.667 157.738 157.893 158.271 159.6C159.231 162.32 160.245 165.52 161.311 169.2C162.431 172.827 163.551 176.64 164.671 180.64C165.845 184.587 166.965 188.453 168.031 192.24C169.098 195.973 170.031 199.333 170.831 202.32C170.191 203.013 169.231 203.6 167.951 204.08C166.671 204.56 165.151 204.8 163.391 204.8C160.778 204.8 158.965 204.373 157.951 203.52C156.938 202.613 156.191 201.253 155.711 199.44L153.711 191.76L152.111 183.52C151.578 181.44 151.045 179.44 150.511 177.52C149.978 175.6 149.471 173.787 148.991 172.08C148.511 170.32 148.058 168.72 147.631 167.28ZM134.111 193.92L139.631 183.12H157.231L158.911 193.92H134.111ZM177.388 168.64H191.388V203.52L184.828 204.24C182.534 204.24 180.721 203.573 179.388 202.24C178.054 200.907 177.388 199.093 177.388 196.8V168.64ZM184.828 204.24V192.96H209.708C210.081 193.547 210.428 194.32 210.748 195.28C211.068 196.24 211.228 197.28 211.228 198.4C211.228 200.373 210.801 201.84 209.948 202.8C209.094 203.76 207.921 204.24 206.428 204.24H184.828ZM191.388 187.12H177.388V155.36C178.028 155.253 178.961 155.12 180.188 154.96C181.468 154.747 182.694 154.64 183.868 154.64C186.534 154.64 188.454 155.093 189.628 156C190.801 156.907 191.388 158.667 191.388 161.28V187.12ZM239.584 167.28H239.104C238.624 168.773 238.091 170.4 237.504 172.16C236.918 173.92 236.304 175.787 235.664 177.76C235.024 179.68 234.411 181.68 233.824 183.76L232.064 192.8C231.744 193.867 231.451 194.907 231.184 195.92C230.971 196.933 230.731 197.893 230.464 198.8C230.251 199.707 230.038 200.587 229.824 201.44C229.611 202.293 229.398 203.12 229.184 203.92C228.491 204.133 227.718 204.347 226.864 204.56C226.011 204.773 224.998 204.88 223.824 204.88C221.158 204.88 219.158 204.427 217.824 203.52C216.491 202.56 215.824 201.253 215.824 199.6C215.824 198.853 215.931 198.107 216.144 197.36C216.358 196.613 216.598 195.733 216.864 194.72C217.291 193.013 217.931 190.827 218.784 188.16C219.638 185.44 220.571 182.533 221.584 179.44C222.651 176.293 223.691 173.227 224.704 170.24C225.771 167.253 226.731 164.587 227.584 162.24C228.438 159.84 229.078 158.08 229.504 156.96C230.411 156.427 231.798 155.92 233.664 155.44C235.531 154.96 237.371 154.72 239.184 154.72C241.851 154.72 244.224 155.12 246.304 155.92C248.384 156.667 249.691 157.893 250.224 159.6C251.184 162.32 252.198 165.52 253.264 169.2C254.384 172.827 255.504 176.64 256.624 180.64C257.798 184.587 258.918 188.453 259.984 192.24C261.051 195.973 261.984 199.333 262.784 202.32C262.144 203.013 261.184 203.6 259.904 204.08C258.624 204.56 257.104 204.8 255.344 204.8C252.731 204.8 250.918 204.373 249.904 203.52C248.891 202.613 248.144 201.253 247.664 199.44L245.664 191.76L244.064 183.52C243.531 181.44 242.998 179.44 242.464 177.52C241.931 175.6 241.424 173.787 240.944 172.08C240.464 170.32 240.011 168.72 239.584 167.28ZM226.064 193.92L231.584 183.12H249.184L250.864 193.92H226.064ZM276.128 166.72V155.52H302.768C303.141 156.107 303.461 156.88 303.728 157.84C304.048 158.8 304.208 159.84 304.208 160.96C304.208 162.933 303.755 164.4 302.848 165.36C301.995 166.267 300.821 166.72 299.328 166.72H276.128ZM290.848 155.52V166.72H264.208C263.835 166.133 263.488 165.36 263.168 164.4C262.901 163.44 262.768 162.4 262.768 161.28C262.768 159.253 263.195 157.787 264.048 156.88C264.955 155.973 266.155 155.52 267.648 155.52H290.848ZM276.288 164.56H290.288V203.92C289.701 204.08 288.795 204.24 287.568 204.4C286.341 204.56 285.088 204.64 283.808 204.64C281.035 204.64 279.088 204.16 277.968 203.2C276.848 202.187 276.288 200.453 276.288 198V164.56Z" fill="white"/>
<path d="M27.12 110.6H33.68V138.36L30.64 139C29.6267 139 28.7733 138.68 28.08 138.04C27.44 137.347 27.12 136.493 27.12 135.48V110.6ZM30.64 139V133.4H56.64C56.9067 133.613 57.12 133.96 57.28 134.44C57.44 134.92 57.52 135.453 57.52 136.04C57.52 136.947 57.28 137.667 56.8 138.2C56.32 138.733 55.68 139 54.88 139H30.64ZM33.68 115.4H27.12V90.52C27.3867 90.4133 27.7867 90.3067 28.32 90.2C28.9067 90.04 29.52 89.96 30.16 89.96C31.3333 89.96 32.2133 90.2 32.8 90.68C33.3867 91.1067 33.68 91.8533 33.68 92.92V115.4ZM79.8075 121.56H74.1275C72.6342 119.32 71.0608 116.973 69.4075 114.52C67.8075 112.013 66.2075 109.48 64.6075 106.92C63.0608 104.36 61.5675 101.853 60.1275 99.4C58.7408 96.8933 57.4875 94.5733 56.3675 92.44C56.5808 91.8533 56.9808 91.2933 57.5675 90.76C58.1542 90.1733 58.9275 89.88 59.8875 89.88C60.9008 89.88 61.6742 90.1467 62.2075 90.68C62.7942 91.2133 63.3808 92.0133 63.9675 93.08C64.8208 94.5733 65.8075 96.3333 66.9275 98.36C68.1008 100.333 69.3008 102.387 70.5275 104.52C71.7542 106.653 72.9008 108.68 73.9675 110.6C75.0875 112.52 76.0475 114.12 76.8475 115.4H77.1675C79.0342 112.307 80.7408 109.373 82.2875 106.6C83.8342 103.827 85.3275 101.107 86.7675 98.44C88.2075 95.7733 89.6208 93.1067 91.0075 90.44C91.3275 90.2267 91.7275 90.0933 92.2075 90.04C92.6875 89.9333 93.1142 89.88 93.4875 89.88C94.5008 89.88 95.2475 90.12 95.7275 90.6C96.2608 91.08 96.5275 91.7467 96.5275 92.6C96.5275 93.1333 96.1008 94.28 95.2475 96.04C94.4475 97.7467 93.3008 99.9067 91.8075 102.52C90.3142 105.08 88.5542 107.987 86.5275 111.24C84.5008 114.493 82.2608 117.933 79.8075 121.56ZM73.7275 118.44H80.2075V138.84C79.9408 138.947 79.5142 139.053 78.9275 139.16C78.3942 139.32 77.8342 139.4 77.2475 139.4C76.0742 139.4 75.1942 139.16 74.6075 138.68C74.0208 138.2 73.7275 137.453 73.7275 136.44V118.44ZM105.792 95.88L111.232 95.4C111.445 97.0533 111.632 99 111.792 101.24C111.952 103.48 112.059 105.8 112.112 108.2C112.219 110.547 112.272 112.787 112.272 114.92V138.84C112.005 138.947 111.579 139.053 110.992 139.16C110.459 139.32 109.899 139.4 109.312 139.4C108.139 139.4 107.259 139.187 106.672 138.76C106.085 138.28 105.792 137.533 105.792 136.52V95.88ZM144.352 133.48L138.832 133.96C138.299 129.48 137.979 124.92 137.872 120.28C137.819 115.587 137.792 111.053 137.792 106.68V90.52C138.112 90.4133 138.539 90.3067 139.072 90.2C139.605 90.04 140.192 89.96 140.832 89.96C142.005 89.96 142.885 90.2 143.472 90.68C144.059 91.1067 144.352 91.8267 144.352 92.84V133.48ZM144.352 131.08V138.12C143.872 138.493 143.259 138.813 142.512 139.08C141.765 139.347 140.939 139.48 140.032 139.48C138.752 139.48 137.659 139.24 136.752 138.76C135.845 138.227 135.019 137.293 134.272 135.96L119.072 110.36C118.272 108.92 117.392 107.347 116.432 105.64C115.472 103.88 114.565 102.227 113.712 100.68C112.859 99.08 112.192 97.7733 111.712 96.76L105.792 98.28V91.32C106.219 90.8933 106.805 90.5467 107.552 90.28C108.352 90.0133 109.205 89.88 110.112 89.88C111.392 89.88 112.485 90.1467 113.392 90.68C114.299 91.16 115.125 92.0667 115.872 93.4L131.152 119C132.005 120.44 132.885 122.04 133.792 123.8C134.752 125.507 135.632 127.16 136.432 128.76C137.232 130.307 137.872 131.587 138.352 132.6L144.352 131.08ZM192.684 114.12C192.684 109.533 191.778 105.853 189.964 103.08C188.204 100.253 185.831 98.2 182.844 96.92C179.911 95.5867 176.631 94.92 173.004 94.92C171.351 94.92 169.884 94.9733 168.604 95.08C167.324 95.1867 166.151 95.3467 165.084 95.56V133.64C166.364 133.96 167.724 134.173 169.164 134.28C170.658 134.387 172.178 134.44 173.724 134.44C179.964 134.44 184.684 132.733 187.884 129.32C191.084 125.853 192.684 120.787 192.684 114.12ZM199.324 114.12C199.324 119.933 198.258 124.76 196.124 128.6C194.044 132.387 191.084 135.213 187.244 137.08C183.458 138.947 178.978 139.88 173.804 139.88C172.151 139.88 170.231 139.8 168.044 139.64C165.911 139.533 163.884 139.187 161.964 138.6C159.724 137.907 158.604 136.68 158.604 134.92V93.8C158.604 92.9467 158.818 92.3067 159.244 91.88C159.724 91.4 160.391 91.0267 161.244 90.76C162.898 90.2267 164.764 89.88 166.844 89.72C168.924 89.56 171.004 89.48 173.084 89.48C178.311 89.48 182.871 90.4133 186.764 92.28C190.711 94.0933 193.778 96.8133 195.964 100.44C198.204 104.067 199.324 108.627 199.324 114.12ZM254.392 114.68C254.392 120.227 253.379 124.893 251.352 128.68C249.325 132.413 246.552 135.24 243.032 137.16C239.565 139.08 235.619 140.04 231.192 140.04C226.819 140.04 222.872 139.08 219.352 137.16C215.832 135.24 213.059 132.413 211.032 128.68C209.005 124.893 207.992 120.227 207.992 114.68C207.992 109.133 209.032 104.493 211.112 100.76C213.192 96.9733 215.965 94.12 219.432 92.2C222.952 90.28 226.872 89.32 231.192 89.32C235.565 89.32 239.485 90.28 242.952 92.2C246.472 94.12 249.245 96.9733 251.272 100.76C253.352 104.493 254.392 109.133 254.392 114.68ZM247.752 114.68C247.752 108.333 246.232 103.453 243.192 100.04C240.205 96.5733 236.205 94.84 231.192 94.84C226.232 94.84 222.232 96.5733 219.192 100.04C216.205 103.453 214.712 108.333 214.712 114.68C214.712 121.027 216.205 125.933 219.192 129.4C222.179 132.813 226.179 134.52 231.192 134.52C236.259 134.52 240.285 132.813 243.272 129.4C246.259 125.933 247.752 121.027 247.752 114.68ZM265.948 95.88L271.388 95.4C271.601 97.0533 271.788 99 271.948 101.24C272.108 103.48 272.215 105.8 272.268 108.2C272.375 110.547 272.428 112.787 272.428 114.92V138.84C272.161 138.947 271.735 139.053 271.148 139.16C270.615 139.32 270.055 139.4 269.468 139.4C268.295 139.4 267.415 139.187 266.828 138.76C266.241 138.28 265.948 137.533 265.948 136.52V95.88ZM304.508 133.48L298.988 133.96C298.455 129.48 298.135 124.92 298.028 120.28C297.975 115.587 297.948 111.053 297.948 106.68V90.52C298.268 90.4133 298.695 90.3067 299.228 90.2C299.761 90.04 300.348 89.96 300.988 89.96C302.161 89.96 303.041 90.2 303.628 90.68C304.215 91.1067 304.508 91.8267 304.508 92.84V133.48ZM304.508 131.08V138.12C304.028 138.493 303.415 138.813 302.668 139.08C301.921 139.347 301.095 139.48 300.188 139.48C298.908 139.48 297.815 139.24 296.908 138.76C296.001 138.227 295.175 137.293 294.428 135.96L279.228 110.36C278.428 108.92 277.548 107.347 276.588 105.64C275.628 103.88 274.721 102.227 273.868 100.68C273.015 99.08 272.348 97.7733 271.868 96.76L265.948 98.28V91.32C266.375 90.8933 266.961 90.5467 267.708 90.28C268.508 90.0133 269.361 89.88 270.268 89.88C271.548 89.88 272.641 90.1467 273.548 90.68C274.455 91.16 275.281 92.0667 276.028 93.4L291.308 119C292.161 120.44 293.041 122.04 293.948 123.8C294.908 125.507 295.788 127.16 296.588 128.76C297.388 130.307 298.028 131.587 298.508 132.6L304.508 131.08Z" fill="white"/>
</svg>
