<svg width="600" height="300" viewBox="0 0 600 300" fill="none" xmlns="http://www.w3.org/2000/svg">
<g clip-path="url(#clip0_35_8)">
<path d="M82.2344 200.38C82.2344 202.763 81.8571 204.848 81.1025 206.635C80.348 208.382 79.3154 209.871 78.0049 211.103C76.6943 212.334 75.1654 213.346 73.418 214.141C71.7103 214.895 69.8835 215.491 67.9375 215.928C66.0312 216.325 64.0654 216.603 62.04 216.762C60.0544 216.921 58.1283 217 56.2617 217H27.6084V215.272C29.5146 215.272 31.0238 215.153 32.1357 214.915C33.2874 214.637 34.1611 214.18 34.7568 213.545C35.3525 212.87 35.7497 211.956 35.9482 210.805C36.1468 209.613 36.2461 208.104 36.2461 206.277V166.842C36.2461 164.936 36.1667 163.407 36.0078 162.255C35.849 161.063 35.4717 160.13 34.876 159.455C34.2803 158.78 33.4066 158.323 32.2549 158.085C31.1032 157.847 29.5544 157.728 27.6084 157.728V156.119H53.8193C55.6462 156.119 57.5524 156.199 59.5381 156.357C61.5635 156.516 63.5293 156.814 65.4355 157.251C67.3418 157.648 69.1488 158.224 70.8564 158.979C72.5641 159.733 74.0534 160.726 75.3242 161.957C76.6348 163.148 77.6673 164.618 78.4219 166.365C79.1764 168.073 79.5537 170.098 79.5537 172.441C79.5537 174.149 79.2559 175.718 78.6602 177.147C78.1042 178.577 77.3298 179.868 76.3369 181.02C75.3441 182.132 74.1725 183.104 72.8223 183.938C71.472 184.772 70.0225 185.428 68.4736 185.904C70.499 186.262 72.3457 186.818 74.0137 187.572C75.6816 188.287 77.1312 189.24 78.3623 190.432C79.5934 191.583 80.5465 192.993 81.2217 194.661C81.8968 196.289 82.2344 198.196 82.2344 200.38ZM70.0225 171.965C70.0225 169.582 69.5062 167.576 68.4736 165.948C67.4808 164.32 66.1702 163.009 64.542 162.017C62.9535 160.984 61.1465 160.249 59.1211 159.812C57.1354 159.376 55.1299 159.157 53.1045 159.157C51.7145 159.157 50.3245 159.237 48.9346 159.396C47.5843 159.515 46.234 159.733 44.8838 160.051V183.462C46.3135 183.78 47.7432 183.958 49.1729 183.998C50.6423 184.038 52.0719 184.058 53.4619 184.058C55.5667 184.058 57.612 183.899 59.5977 183.581C61.5833 183.224 63.3506 182.588 64.8994 181.675C66.4482 180.761 67.6794 179.53 68.5928 177.981C69.5459 176.433 70.0225 174.427 70.0225 171.965ZM71.8691 201.035C71.8691 198.414 71.2933 196.23 70.1416 194.482C68.9899 192.695 67.5007 191.266 65.6738 190.193C63.8867 189.121 61.8613 188.367 59.5977 187.93C57.334 187.453 55.0902 187.215 52.8662 187.215C51.5954 187.215 50.265 187.235 48.875 187.274C47.5247 187.274 46.1943 187.374 44.8838 187.572V212.592C46.6312 212.989 48.3587 213.307 50.0664 213.545C51.7741 213.743 53.5215 213.843 55.3086 213.843C57.334 213.843 59.3197 213.624 61.2656 213.188C63.2513 212.711 65.0186 211.976 66.5674 210.983C68.1559 209.951 69.4268 208.62 70.3799 206.992C71.3727 205.364 71.8691 203.378 71.8691 201.035ZM119.466 218.37H117.381V209.554C116.467 210.547 115.494 211.559 114.462 212.592C113.429 213.624 112.317 214.577 111.126 215.451C109.974 216.285 108.743 216.98 107.433 217.536C106.162 218.092 104.812 218.37 103.382 218.37C101.158 218.37 99.3509 217.874 97.9609 216.881C96.571 215.888 95.4788 214.617 94.6846 213.068C93.93 211.52 93.4137 209.792 93.1357 207.886C92.8975 205.979 92.7783 204.133 92.7783 202.346V183.938C92.7783 182.588 92.6592 181.496 92.4209 180.662C92.1826 179.828 91.7855 179.193 91.2295 178.756C90.6735 178.279 89.9388 177.962 89.0254 177.803C88.1517 177.644 87.0794 177.564 85.8086 177.564V175.896H100.344V203.358C100.344 204.55 100.423 205.701 100.582 206.813C100.781 207.925 101.118 208.918 101.595 209.792C102.111 210.666 102.806 211.381 103.68 211.937C104.593 212.453 105.745 212.711 107.135 212.711C108.128 212.711 109.101 212.532 110.054 212.175C111.007 211.817 111.92 211.361 112.794 210.805C113.668 210.249 114.482 209.633 115.236 208.958C116.031 208.243 116.745 207.548 117.381 206.873V183.581C117.381 182.35 117.242 181.337 116.964 180.543C116.726 179.749 116.328 179.133 115.772 178.696C115.256 178.259 114.561 177.962 113.688 177.803C112.854 177.644 111.861 177.564 110.709 177.564V175.896H124.827V206.158C124.827 206.595 124.847 207.171 124.887 207.886C124.926 208.601 125.026 209.296 125.185 209.971C125.383 210.606 125.661 211.162 126.019 211.639C126.416 212.115 126.952 212.354 127.627 212.354C128.818 212.354 130.049 212.115 131.32 211.639L131.916 213.247L119.466 218.37ZM172.543 211.043C171.987 211.798 171.352 212.592 170.637 213.426C169.962 214.22 169.207 214.955 168.373 215.63C167.579 216.265 166.705 216.782 165.752 217.179C164.799 217.616 163.806 217.834 162.773 217.834C161.82 217.834 161.026 217.635 160.391 217.238C159.795 216.841 159.318 216.325 158.961 215.689C158.604 215.014 158.345 214.28 158.187 213.485C158.067 212.691 158.008 211.877 158.008 211.043C157.015 211.837 156.022 212.632 155.029 213.426C154.036 214.22 153.004 214.955 151.932 215.63C150.859 216.265 149.747 216.782 148.596 217.179C147.444 217.616 146.193 217.834 144.843 217.834C143.294 217.834 141.904 217.556 140.673 217C139.481 216.484 138.469 215.749 137.635 214.796C136.801 213.843 136.165 212.731 135.729 211.46C135.292 210.149 135.073 208.74 135.073 207.23C135.073 205.562 135.451 204.034 136.205 202.644C136.999 201.254 138.032 199.983 139.303 198.831C140.574 197.679 142.023 196.647 143.651 195.733C145.28 194.78 146.948 193.946 148.655 193.231C150.363 192.477 152.031 191.822 153.659 191.266C155.287 190.71 156.737 190.213 158.008 189.776V188.108C158.008 186.718 157.909 185.388 157.71 184.117C157.551 182.807 157.194 181.655 156.638 180.662C156.082 179.63 155.307 178.815 154.314 178.22C153.322 177.624 151.991 177.326 150.323 177.326C148.933 177.326 147.841 177.525 147.047 177.922C146.253 178.279 145.637 178.815 145.2 179.53C144.803 180.205 144.545 181.02 144.426 181.973C144.307 182.886 144.247 183.899 144.247 185.011C144.247 186.361 143.989 187.413 143.473 188.168C142.956 188.923 141.944 189.3 140.435 189.3C139.045 189.3 138.072 188.903 137.516 188.108C136.96 187.314 136.682 186.282 136.682 185.011C136.682 183.144 137.178 181.556 138.171 180.245C139.164 178.935 140.395 177.862 141.864 177.028C143.373 176.194 145.002 175.599 146.749 175.241C148.496 174.844 150.145 174.646 151.693 174.646C154.275 174.646 156.439 174.904 158.187 175.42C159.974 175.896 161.403 176.711 162.476 177.862C163.548 178.974 164.302 180.424 164.739 182.211C165.216 183.998 165.454 186.162 165.454 188.704V202.703C165.454 203.299 165.454 203.934 165.454 204.609C165.454 205.285 165.454 205.96 165.454 206.635C165.494 207.27 165.514 207.886 165.514 208.481C165.553 209.037 165.613 209.514 165.692 209.911C165.772 210.467 165.951 210.983 166.229 211.46C166.507 211.897 166.983 212.115 167.658 212.115C167.976 212.115 168.373 211.976 168.85 211.698C169.326 211.381 169.803 211.023 170.279 210.626C170.756 210.229 171.193 209.832 171.59 209.435C172.027 209.037 172.344 208.72 172.543 208.481V211.043ZM158.008 192.338C156.499 192.894 154.851 193.569 153.063 194.363C151.276 195.158 149.608 196.091 148.06 197.163C146.511 198.196 145.22 199.387 144.188 200.737C143.155 202.048 142.639 203.517 142.639 205.146C142.639 206.059 142.778 206.952 143.056 207.826C143.334 208.7 143.751 209.494 144.307 210.209C144.863 210.924 145.518 211.5 146.272 211.937C147.067 212.373 147.98 212.592 149.013 212.592C149.807 212.592 150.601 212.453 151.396 212.175C152.19 211.897 152.964 211.539 153.719 211.103C154.513 210.626 155.268 210.13 155.982 209.613C156.737 209.057 157.412 208.541 158.008 208.064V192.338ZM176.058 217V215.272C177.487 215.272 178.599 215.114 179.394 214.796C180.228 214.438 180.843 213.942 181.24 213.307C181.677 212.671 181.935 211.897 182.015 210.983C182.134 210.03 182.193 208.938 182.193 207.707V166.425C182.193 165.432 182.154 164.499 182.074 163.625C182.035 162.712 181.896 161.917 181.657 161.242C181.419 160.567 181.081 160.031 180.645 159.634C180.208 159.237 179.612 159.038 178.857 159.038C178.381 159.038 177.924 159.098 177.487 159.217C177.05 159.296 176.574 159.435 176.058 159.634L175.343 158.085L187.674 153.2H189.64V207.707C189.64 209.097 189.699 210.269 189.818 211.222C189.977 212.175 190.275 212.949 190.712 213.545C191.188 214.141 191.864 214.577 192.737 214.855C193.611 215.133 194.802 215.272 196.312 215.272V217H176.058ZM239.023 211.043C238.467 211.798 237.832 212.592 237.117 213.426C236.442 214.22 235.688 214.955 234.854 215.63C234.059 216.265 233.186 216.782 232.232 217.179C231.279 217.616 230.286 217.834 229.254 217.834C228.301 217.834 227.507 217.635 226.871 217.238C226.275 216.841 225.799 216.325 225.441 215.689C225.084 215.014 224.826 214.28 224.667 213.485C224.548 212.691 224.488 211.877 224.488 211.043C223.495 211.837 222.503 212.632 221.51 213.426C220.517 214.22 219.484 214.955 218.412 215.63C217.34 216.265 216.228 216.782 215.076 217.179C213.924 217.616 212.674 217.834 211.323 217.834C209.774 217.834 208.384 217.556 207.153 217C205.962 216.484 204.949 215.749 204.115 214.796C203.281 213.843 202.646 212.731 202.209 211.46C201.772 210.149 201.554 208.74 201.554 207.23C201.554 205.562 201.931 204.034 202.686 202.644C203.48 201.254 204.512 199.983 205.783 198.831C207.054 197.679 208.504 196.647 210.132 195.733C211.76 194.78 213.428 193.946 215.136 193.231C216.843 192.477 218.511 191.822 220.14 191.266C221.768 190.71 223.217 190.213 224.488 189.776V188.108C224.488 186.718 224.389 185.388 224.19 184.117C224.032 182.807 223.674 181.655 223.118 180.662C222.562 179.63 221.788 178.815 220.795 178.22C219.802 177.624 218.472 177.326 216.804 177.326C215.414 177.326 214.322 177.525 213.527 177.922C212.733 178.279 212.118 178.815 211.681 179.53C211.284 180.205 211.025 181.02 210.906 181.973C210.787 182.886 210.728 183.899 210.728 185.011C210.728 186.361 210.469 187.413 209.953 188.168C209.437 188.923 208.424 189.3 206.915 189.3C205.525 189.3 204.552 188.903 203.996 188.108C203.44 187.314 203.162 186.282 203.162 185.011C203.162 183.144 203.659 181.556 204.651 180.245C205.644 178.935 206.875 177.862 208.345 177.028C209.854 176.194 211.482 175.599 213.229 175.241C214.977 174.844 216.625 174.646 218.174 174.646C220.755 174.646 222.92 174.904 224.667 175.42C226.454 175.896 227.884 176.711 228.956 177.862C230.028 178.974 230.783 180.424 231.22 182.211C231.696 183.998 231.935 186.162 231.935 188.704V202.703C231.935 203.299 231.935 203.934 231.935 204.609C231.935 205.285 231.935 205.96 231.935 206.635C231.974 207.27 231.994 207.886 231.994 208.481C232.034 209.037 232.093 209.514 232.173 209.911C232.252 210.467 232.431 210.983 232.709 211.46C232.987 211.897 233.464 212.115 234.139 212.115C234.456 212.115 234.854 211.976 235.33 211.698C235.807 211.381 236.283 211.023 236.76 210.626C237.236 210.229 237.673 209.832 238.07 209.435C238.507 209.037 238.825 208.72 239.023 208.481V211.043ZM224.488 192.338C222.979 192.894 221.331 193.569 219.544 194.363C217.757 195.158 216.089 196.091 214.54 197.163C212.991 198.196 211.701 199.387 210.668 200.737C209.635 202.048 209.119 203.517 209.119 205.146C209.119 206.059 209.258 206.952 209.536 207.826C209.814 208.7 210.231 209.494 210.787 210.209C211.343 210.924 211.998 211.5 212.753 211.937C213.547 212.373 214.461 212.592 215.493 212.592C216.287 212.592 217.082 212.453 217.876 212.175C218.67 211.897 219.445 211.539 220.199 211.103C220.993 210.626 221.748 210.13 222.463 209.613C223.217 209.057 223.893 208.541 224.488 208.064V192.338ZM264.758 209.435C264.44 210.586 263.964 211.698 263.328 212.771C262.693 213.843 261.918 214.796 261.005 215.63C260.131 216.464 259.138 217.119 258.026 217.596C256.914 218.112 255.743 218.37 254.512 218.37C252.883 218.37 251.553 218.052 250.521 217.417C249.488 216.821 248.654 216.027 248.019 215.034C247.383 214.002 246.946 212.83 246.708 211.52C246.47 210.209 246.351 208.859 246.351 207.469V178.935H239.857V177.564C241.406 176.969 242.816 176.115 244.087 175.003C245.397 173.891 246.569 172.64 247.602 171.25C248.674 169.82 249.607 168.331 250.401 166.782C251.235 165.233 251.95 163.744 252.546 162.314H253.916V175.896H263.566V178.935H253.916V206.396C253.916 207.072 253.956 207.806 254.035 208.601C254.154 209.395 254.353 210.149 254.631 210.864C254.909 211.539 255.306 212.115 255.822 212.592C256.378 213.029 257.073 213.247 257.907 213.247C259.257 213.247 260.33 212.91 261.124 212.234C261.918 211.52 262.554 210.586 263.03 209.435H264.758Z" fill="white"/>
<path d="M74.2227 145H27.6992V143.301C29.1055 143.301 30.3555 143.223 31.4492 143.066C32.543 142.871 33.4414 142.52 34.1445 142.012C34.8867 141.465 35.4531 140.703 35.8438 139.727C36.2344 138.75 36.4297 137.461 36.4297 135.859V94.2578C36.4297 92.6953 36.2344 91.4258 35.8438 90.4492C35.4531 89.4727 34.8867 88.7305 34.1445 88.2227C33.4414 87.6758 32.543 87.3047 31.4492 87.1094C30.3555 86.9141 29.1055 86.8164 27.6992 86.8164V85.1172H53.7148V86.8164C52.2695 86.8164 51 86.9141 49.9062 87.1094C48.8125 87.3047 47.8945 87.6758 47.1523 88.2227C46.4102 88.7305 45.8438 89.4727 45.4531 90.4492C45.0625 91.4258 44.8672 92.6953 44.8672 94.2578V133.691C44.8672 135.176 44.9844 136.406 45.2188 137.383C45.4531 138.32 45.8438 139.082 46.3906 139.668C46.9766 140.215 47.7578 140.605 48.7344 140.84C49.7109 141.035 50.9414 141.133 52.4258 141.133H58.4023C61.293 141.133 63.7148 140.977 65.668 140.664C67.6211 140.312 69.3008 139.688 70.707 138.789C72.1523 137.852 73.4219 136.562 74.5156 134.922C75.6094 133.242 76.7227 131.074 77.8555 128.418L79.3789 128.652L74.2227 145ZM125.961 106.211C125.023 106.289 124.242 106.504 123.617 106.855C123.031 107.168 122.523 107.598 122.094 108.145C121.664 108.652 121.293 109.258 120.98 109.961C120.668 110.664 120.336 111.426 119.984 112.246L103.52 152.676C102.934 154.043 102.191 155.43 101.293 156.836C100.434 158.281 99.418 159.57 98.2461 160.703C97.0742 161.836 95.7852 162.754 94.3789 163.457C92.9727 164.199 91.4492 164.57 89.8086 164.57C89.0664 164.57 88.3242 164.453 87.582 164.219C86.8789 164.023 86.2539 163.711 85.707 163.281C85.1602 162.852 84.7109 162.324 84.3594 161.699C84.0078 161.074 83.832 160.352 83.832 159.531C83.832 158.086 84.2422 157.051 85.0625 156.426C85.8828 155.84 86.957 155.547 88.2852 155.547C88.832 155.547 89.3594 155.625 89.8672 155.781C90.4141 155.938 90.9414 156.113 91.4492 156.309C91.9961 156.543 92.5234 156.738 93.0312 156.895C93.5391 157.051 94.0273 157.129 94.4961 157.129C95.2773 157.129 96.0195 156.836 96.7227 156.25C97.4258 155.703 98.0703 154.98 98.6562 154.082C99.2812 153.223 99.8477 152.246 100.355 151.152C100.863 150.098 101.312 149.062 101.703 148.047C102.133 147.031 102.484 146.094 102.758 145.234C103.07 144.375 103.324 143.73 103.52 143.301L88.9883 112.832C88.5977 112.051 88.1875 111.289 87.7578 110.547C87.3281 109.766 86.8203 109.082 86.2344 108.496C85.6875 107.871 85.0234 107.363 84.2422 106.973C83.5 106.582 82.6406 106.328 81.6641 106.211V104.57H100.648V106.211C100.062 106.211 99.4766 106.23 98.8906 106.27C98.3047 106.309 97.7578 106.426 97.25 106.621C96.7812 106.777 96.3906 107.051 96.0781 107.441C95.7656 107.832 95.6094 108.398 95.6094 109.141C95.6094 109.961 95.7656 110.781 96.0781 111.602C96.4297 112.422 96.7812 113.203 97.1328 113.945L106.977 134.336L116 111.895C116.234 111.348 116.449 110.801 116.645 110.254C116.84 109.707 116.938 109.16 116.938 108.613C116.938 108.027 116.801 107.578 116.527 107.266C116.293 106.914 115.961 106.66 115.531 106.504C115.141 106.348 114.691 106.27 114.184 106.27C113.715 106.23 113.246 106.211 112.777 106.211V104.57H125.961V106.211ZM151.273 145V143.301C152.797 143.301 153.988 143.184 154.848 142.949C155.746 142.715 156.41 142.324 156.84 141.777C157.309 141.191 157.602 140.43 157.719 139.492C157.836 138.516 157.895 137.305 157.895 135.859V119.336C157.895 118.203 157.836 117.012 157.719 115.762C157.641 114.512 157.387 113.379 156.957 112.363C156.527 111.309 155.883 110.449 155.023 109.785C154.164 109.121 152.992 108.789 151.508 108.789C150.453 108.789 149.438 108.965 148.461 109.316C147.484 109.629 146.547 110.059 145.648 110.605C144.789 111.113 143.969 111.719 143.188 112.422C142.445 113.125 141.742 113.828 141.078 114.531V135.859C141.078 137.266 141.137 138.457 141.254 139.434C141.371 140.371 141.645 141.133 142.074 141.719C142.504 142.305 143.148 142.715 144.008 142.949C144.906 143.184 146.117 143.301 147.641 143.301V145H127.484V143.301C128.969 143.301 130.121 143.164 130.941 142.891C131.762 142.578 132.367 142.129 132.758 141.543C133.188 140.918 133.441 140.137 133.52 139.199C133.598 138.262 133.637 137.148 133.637 135.859V117.227C133.637 116.211 133.598 115.234 133.52 114.297C133.48 113.32 133.344 112.461 133.109 111.719C132.914 110.938 132.602 110.312 132.172 109.844C131.781 109.375 131.234 109.141 130.531 109.141C130.023 109.141 129.516 109.219 129.008 109.375C128.5 109.492 127.992 109.648 127.484 109.844L126.898 108.262L139.262 103.34H141.078V111.895C141.898 110.918 142.797 109.922 143.773 108.906C144.789 107.891 145.863 106.973 146.996 106.152C148.129 105.332 149.34 104.668 150.629 104.16C151.918 103.613 153.246 103.34 154.613 103.34C156.801 103.34 158.578 103.789 159.945 104.688C161.352 105.586 162.445 106.777 163.227 108.262C164.008 109.707 164.535 111.348 164.809 113.184C165.082 114.98 165.219 116.777 165.219 118.574V135.859C165.219 137.148 165.277 138.262 165.395 139.199C165.512 140.137 165.766 140.918 166.156 141.543C166.586 142.129 167.211 142.578 168.031 142.891C168.891 143.164 170.062 143.301 171.547 143.301V145H151.273ZM205.004 146.348H203.129V140.43C201.488 142.148 199.672 143.574 197.68 144.707C195.727 145.801 193.578 146.348 191.234 146.348C188.578 146.348 186.215 145.762 184.145 144.59C182.113 143.418 180.395 141.895 178.988 140.02C177.582 138.105 176.508 135.977 175.766 133.633C175.023 131.25 174.652 128.887 174.652 126.543C174.652 123.73 175.102 120.957 176 118.223C176.898 115.449 178.188 112.969 179.867 110.781C181.586 108.555 183.656 106.758 186.078 105.391C188.539 104.023 191.293 103.34 194.34 103.34C195.98 103.34 197.543 103.613 199.027 104.16C200.551 104.668 201.918 105.527 203.129 106.738V93.6133C203.129 91.8555 202.875 90.4883 202.367 89.5117C201.898 88.4961 201.098 87.9883 199.965 87.9883C199.418 87.9883 198.891 88.0469 198.383 88.1641C197.914 88.2422 197.406 88.3789 196.859 88.5742L196.273 87.0508L208.52 82.2461H210.453V132.578C210.453 133.75 210.473 134.824 210.512 135.801C210.59 136.738 210.727 137.559 210.922 138.262C211.156 138.926 211.488 139.453 211.918 139.844C212.348 140.234 212.934 140.43 213.676 140.43C214.145 140.43 214.633 140.371 215.141 140.254C215.688 140.098 216.234 139.922 216.781 139.727L217.25 141.309L205.004 146.348ZM203.129 116.465C203.129 115.215 202.895 113.965 202.426 112.715C201.957 111.465 201.293 110.352 200.434 109.375C199.613 108.359 198.617 107.539 197.445 106.914C196.312 106.289 195.082 105.977 193.754 105.977C191.645 105.977 189.887 106.543 188.48 107.676C187.074 108.809 185.941 110.234 185.082 111.953C184.262 113.633 183.676 115.469 183.324 117.461C182.973 119.414 182.797 121.23 182.797 122.91C182.797 124.785 183.012 126.797 183.441 128.945C183.871 131.094 184.555 133.105 185.492 134.98C186.469 136.816 187.738 138.359 189.301 139.609C190.902 140.82 192.855 141.426 195.16 141.426C196.762 141.426 198.227 141.035 199.555 140.254C200.922 139.434 202.113 138.457 203.129 137.324V116.465ZM259.027 124.023C259.027 126.953 258.559 129.766 257.621 132.461C256.723 135.156 255.414 137.539 253.695 139.609C251.977 141.641 249.887 143.281 247.426 144.531C244.965 145.742 242.191 146.348 239.105 146.348C236.176 146.348 233.52 145.762 231.137 144.59C228.793 143.418 226.781 141.855 225.102 139.902C223.461 137.91 222.172 135.645 221.234 133.105C220.336 130.566 219.887 127.93 219.887 125.195C219.887 122.344 220.336 119.609 221.234 116.992C222.172 114.375 223.5 112.051 225.219 110.02C226.938 107.988 229.008 106.367 231.43 105.156C233.852 103.945 236.566 103.34 239.574 103.34C242.504 103.34 245.16 103.887 247.543 104.98C249.965 106.035 252.016 107.5 253.695 109.375C255.414 111.25 256.723 113.457 257.621 115.996C258.559 118.496 259.027 121.172 259.027 124.023ZM250.766 127.48C250.766 126.191 250.688 124.766 250.531 123.203C250.375 121.641 250.102 120.078 249.711 118.516C249.32 116.914 248.812 115.391 248.188 113.945C247.562 112.461 246.781 111.152 245.844 110.02C244.906 108.848 243.793 107.93 242.504 107.266C241.215 106.562 239.75 106.211 238.109 106.211C236.117 106.211 234.477 106.719 233.188 107.734C231.898 108.711 230.883 109.961 230.141 111.484C229.398 112.969 228.891 114.609 228.617 116.406C228.344 118.203 228.207 119.902 228.207 121.504C228.207 122.793 228.285 124.219 228.441 125.781C228.637 127.344 228.93 128.926 229.32 130.527C229.711 132.129 230.219 133.691 230.844 135.215C231.508 136.699 232.309 138.027 233.246 139.199C234.184 140.371 235.277 141.309 236.527 142.012C237.816 142.715 239.281 143.066 240.922 143.066C243.031 143.066 244.73 142.578 246.02 141.602C247.309 140.586 248.305 139.316 249.008 137.793C249.711 136.23 250.18 134.531 250.414 132.695C250.648 130.859 250.766 129.121 250.766 127.48ZM286.977 145V143.301C288.5 143.301 289.691 143.184 290.551 142.949C291.449 142.715 292.113 142.324 292.543 141.777C293.012 141.191 293.305 140.43 293.422 139.492C293.539 138.516 293.598 137.305 293.598 135.859V119.336C293.598 118.203 293.539 117.012 293.422 115.762C293.344 114.512 293.09 113.379 292.66 112.363C292.23 111.309 291.586 110.449 290.727 109.785C289.867 109.121 288.695 108.789 287.211 108.789C286.156 108.789 285.141 108.965 284.164 109.316C283.188 109.629 282.25 110.059 281.352 110.605C280.492 111.113 279.672 111.719 278.891 112.422C278.148 113.125 277.445 113.828 276.781 114.531V135.859C276.781 137.266 276.84 138.457 276.957 139.434C277.074 140.371 277.348 141.133 277.777 141.719C278.207 142.305 278.852 142.715 279.711 142.949C280.609 143.184 281.82 143.301 283.344 143.301V145H263.188V143.301C264.672 143.301 265.824 143.164 266.645 142.891C267.465 142.578 268.07 142.129 268.461 141.543C268.891 140.918 269.145 140.137 269.223 139.199C269.301 138.262 269.34 137.148 269.34 135.859V117.227C269.34 116.211 269.301 115.234 269.223 114.297C269.184 113.32 269.047 112.461 268.812 111.719C268.617 110.938 268.305 110.312 267.875 109.844C267.484 109.375 266.938 109.141 266.234 109.141C265.727 109.141 265.219 109.219 264.711 109.375C264.203 109.492 263.695 109.648 263.188 109.844L262.602 108.262L274.965 103.34H276.781V111.895C277.602 110.918 278.5 109.922 279.477 108.906C280.492 107.891 281.566 106.973 282.699 106.152C283.832 105.332 285.043 104.668 286.332 104.16C287.621 103.613 288.949 103.34 290.316 103.34C292.504 103.34 294.281 103.789 295.648 104.688C297.055 105.586 298.148 106.777 298.93 108.262C299.711 109.707 300.238 111.348 300.512 113.184C300.785 114.98 300.922 116.777 300.922 118.574V135.859C300.922 137.148 300.98 138.262 301.098 139.199C301.215 140.137 301.469 140.918 301.859 141.543C302.289 142.129 302.914 142.578 303.734 142.891C304.594 143.164 305.766 143.301 307.25 143.301V145H286.977Z" fill="white"/>
<path d="M299.805 209.266C299.805 212.234 298.789 214.734 296.758 216.766C294.805 218.719 292.344 219.695 289.375 219.695C287.969 219.695 286.641 219.422 285.391 218.875C284.219 218.328 283.164 217.586 282.227 216.648C281.367 215.711 280.664 214.617 280.117 213.367C279.57 212.117 279.297 210.75 279.297 209.266C279.297 207.859 279.57 206.57 280.117 205.398C280.664 204.148 281.367 203.094 282.227 202.234C283.164 201.297 284.219 200.555 285.391 200.008C286.641 199.461 287.969 199.188 289.375 199.188C290.859 199.188 292.227 199.461 293.477 200.008C294.727 200.555 295.82 201.297 296.758 202.234C297.695 203.094 298.438 204.148 298.984 205.398C299.531 206.57 299.805 207.859 299.805 209.266ZM439.492 188.875C434.102 198.641 427.305 206.258 419.102 211.727C410.977 217.195 401.289 219.93 390.039 219.93C381.133 219.93 373.086 218.367 365.898 215.242C358.711 212.117 352.578 207.82 347.5 202.352C342.422 196.883 338.516 190.438 335.781 183.016C333.047 175.594 331.68 167.547 331.68 158.875C331.68 149.969 333.125 141.648 336.016 133.914C338.984 126.102 343.125 119.305 348.438 113.523C353.828 107.664 360.234 103.055 367.656 99.6953C375.156 96.3359 383.477 94.6562 392.617 94.6562C395.664 94.6562 398.477 94.8906 401.055 95.3594C403.711 95.75 406.25 96.2969 408.672 97C411.172 97.7031 413.594 98.5625 415.938 99.5781C418.359 100.516 420.938 101.57 423.672 102.742C424.844 102.742 425.859 102.469 426.719 101.922C427.578 101.375 428.281 100.711 428.828 99.9297C429.375 99.1484 429.805 98.2891 430.117 97.3516C430.508 96.4141 430.82 95.5156 431.055 94.6562H434.219L436.797 135.203H434.219C432.734 130.203 430.82 125.633 428.477 121.492C426.211 117.273 423.438 113.641 420.156 110.594C416.953 107.547 413.164 105.164 408.789 103.445C404.492 101.727 399.609 100.867 394.141 100.867C388.672 100.867 383.828 101.688 379.609 103.328C375.469 104.891 371.797 107.078 368.594 109.891C365.469 112.703 362.812 115.984 360.625 119.734C358.516 123.484 356.797 127.547 355.469 131.922C354.219 136.219 353.281 140.711 352.656 145.398C352.109 150.008 351.836 154.578 351.836 159.109C351.836 166.297 352.695 173.094 354.414 179.5C356.133 185.828 358.789 191.414 362.383 196.258C366.055 201.102 370.703 204.93 376.328 207.742C382.031 210.555 388.828 211.961 396.719 211.961C401.719 211.961 406.094 211.375 409.844 210.203C413.672 209.031 417.109 207.391 420.156 205.281C423.281 203.094 426.133 200.477 428.711 197.43C431.367 194.305 434.062 190.828 436.797 187L439.492 188.875ZM569.57 156.531C569.57 165.047 568.164 173.133 565.352 180.789C562.539 188.445 558.555 195.203 553.398 201.062C548.32 206.844 542.148 211.453 534.883 214.891C527.695 218.25 519.648 219.93 510.742 219.93C501.836 219.93 493.75 218.25 486.484 214.891C479.297 211.531 473.125 207 467.969 201.297C462.891 195.516 458.984 188.797 456.25 181.141C453.516 173.484 452.148 165.359 452.148 156.766C452.148 148.094 453.594 140.008 456.484 132.508C459.453 124.93 463.594 118.367 468.906 112.82C474.219 107.195 480.547 102.781 487.891 99.5781C495.234 96.2969 503.32 94.6562 512.148 94.6562C520.82 94.6562 528.672 96.3359 535.703 99.6953C542.734 102.977 548.75 107.469 553.75 113.172C558.828 118.797 562.734 125.359 565.469 132.859C568.203 140.359 569.57 148.25 569.57 156.531ZM549.414 157.703C549.414 153.328 549.18 148.875 548.711 144.344C548.32 139.812 547.578 135.438 546.484 131.219C545.391 127 543.906 123.055 542.031 119.383C540.156 115.711 537.773 112.508 534.883 109.773C531.992 107.039 528.516 104.891 524.453 103.328C520.391 101.688 515.664 100.867 510.273 100.867C505.273 100.867 500.859 101.688 497.031 103.328C493.281 104.891 490 107.039 487.188 109.773C484.375 112.508 482.031 115.711 480.156 119.383C478.281 123.055 476.758 126.961 475.586 131.102C474.492 135.164 473.711 139.383 473.242 143.758C472.773 148.055 472.539 152.234 472.539 156.297C472.539 160.281 472.773 164.461 473.242 168.836C473.711 173.211 474.531 177.508 475.703 181.727C476.875 185.945 478.398 189.969 480.273 193.797C482.148 197.625 484.492 200.984 487.305 203.875C490.117 206.766 493.438 209.07 497.266 210.789C501.094 212.508 505.508 213.367 510.508 213.367C515.742 213.367 520.312 212.586 524.219 211.023C528.203 209.461 531.641 207.352 534.531 204.695C537.422 201.961 539.805 198.797 541.68 195.203C543.633 191.531 545.156 187.664 546.25 183.602C547.422 179.461 548.242 175.203 548.711 170.828C549.18 166.375 549.414 162 549.414 157.703Z" fill="white"/>
</g>
<defs>
<clipPath id="clip0_35_8">
<rect width="600" height="300" fill="white"/>
</clipPath>
</defs>
</svg>
