<svg width="600" height="300" viewBox="0 0 600 300" fill="none" xmlns="http://www.w3.org/2000/svg">
<g clip-path="url(#clip0_11_53)">
<path d="M184.2 248.4L65 164.4V117.6L184.2 33.6V83.6L105 141.2L184.2 198.4V248.4ZM221.697 276L315.297 -48H351.297L257.697 276H221.697ZM388.291 248.4V198.4L468.291 140.8L388.291 83.6V33.6L507.891 117.6V164.4L388.291 248.4Z" fill="#8782CE"/>
<path d="M363.27 130V73.3H376.85C380.677 73.3 383.897 73.7667 386.51 74.7C389.17 75.5867 391.177 77.1267 392.53 79.32C393.93 81.5133 394.63 84.5 394.63 88.28C394.63 90.5667 394.42 92.62 394 94.44C393.58 96.26 392.857 97.8233 391.83 99.13C390.85 100.39 389.473 101.37 387.7 102.07L395.61 130H385.25L378.39 104.03H373.63V130H363.27ZM373.63 97.52H376.85C378.857 97.52 380.443 97.24 381.61 96.68C382.823 96.0733 383.687 95.14 384.2 93.88C384.713 92.5733 384.97 90.9167 384.97 88.91C384.97 86.0633 384.433 83.94 383.36 82.54C382.333 81.0933 380.35 80.37 377.41 80.37H373.63V97.52ZM402.508 130V73.3H426.308V80.58H412.868V96.89H423.438V104.1H412.868V122.86H426.448V130H402.508ZM440.36 130V108.37L428.88 73.3H438.54L445.54 95.77L452.12 73.3H461.57L450.23 108.37V130H440.36Z" fill="white"/>
<path d="M148.27 130V73.3H158.63V122.86H172.35V130H148.27ZM182.157 130V108.37L170.677 73.3H180.337L187.337 95.77L193.917 73.3H203.367L192.027 108.37V130H182.157ZM208.358 130V73.3H215.568L229.358 105.64V73.3H237.898V130H231.038L217.178 96.12V130H208.358ZM246.502 130V73.3H259.872C264.492 73.3 268.086 73.93 270.652 75.19C273.266 76.45 275.109 78.3867 276.182 81C277.302 83.6133 277.862 86.9267 277.862 90.94V111.66C277.862 115.767 277.302 119.197 276.182 121.95C275.109 124.657 273.289 126.687 270.722 128.04C268.202 129.347 264.726 130 260.292 130H246.502ZM256.862 122.79H260.012C262.392 122.79 264.096 122.37 265.122 121.53C266.149 120.69 266.779 119.477 267.012 117.89C267.246 116.257 267.362 114.273 267.362 111.94V90.24C267.362 87.9533 267.199 86.11 266.872 84.71C266.546 83.31 265.869 82.2833 264.842 81.63C263.816 80.9767 262.159 80.65 259.872 80.65H256.862V122.79ZM300.867 130.77C296.854 130.77 293.657 130.023 291.277 128.53C288.897 127.037 287.194 124.89 286.167 122.09C285.141 119.29 284.627 115.977 284.627 112.15V90.94C284.627 87.1133 285.141 83.8467 286.167 81.14C287.194 78.3867 288.897 76.2867 291.277 74.84C293.657 73.3933 296.854 72.67 300.867 72.67C304.974 72.67 308.194 73.3933 310.527 74.84C312.907 76.2867 314.611 78.3867 315.637 81.14C316.711 83.8467 317.247 87.1133 317.247 90.94V112.22C317.247 116 316.711 119.29 315.637 122.09C314.611 124.843 312.907 126.99 310.527 128.53C308.194 130.023 304.974 130.77 300.867 130.77ZM300.867 123.14C302.594 123.14 303.854 122.767 304.647 122.02C305.487 121.273 306.047 120.247 306.327 118.94C306.607 117.633 306.747 116.21 306.747 114.67V88.56C306.747 86.9733 306.607 85.55 306.327 84.29C306.047 83.03 305.487 82.05 304.647 81.35C303.854 80.6033 302.594 80.23 300.867 80.23C299.234 80.23 297.997 80.6033 297.157 81.35C296.317 82.05 295.757 83.03 295.477 84.29C295.197 85.55 295.057 86.9733 295.057 88.56V114.67C295.057 116.21 295.174 117.633 295.407 118.94C295.687 120.247 296.247 121.273 297.087 122.02C297.927 122.767 299.187 123.14 300.867 123.14ZM324.911 130V73.3H332.121L345.911 105.64V73.3H354.451V130H347.591L333.731 96.12V130H324.911Z" fill="white"/>
<path d="M145.832 230V139.28H167.224C174.616 139.28 180.365 140.288 184.472 142.304C188.653 144.32 191.603 147.419 193.32 151.6C195.112 155.781 196.008 161.083 196.008 167.504V200.656C196.008 207.227 195.112 212.715 193.32 217.12C191.603 221.451 188.691 224.699 184.584 226.864C180.552 228.955 174.989 230 167.896 230H145.832ZM162.408 218.464H167.448C171.256 218.464 173.981 217.792 175.624 216.448C177.267 215.104 178.275 213.163 178.648 210.624C179.021 208.011 179.208 204.837 179.208 201.104V166.384C179.208 162.725 178.947 159.776 178.424 157.536C177.901 155.296 176.819 153.653 175.176 152.608C173.533 151.563 170.883 151.04 167.224 151.04H162.408V218.464ZM208.176 230V139.28H246.256V150.928H224.752V177.024H241.664V188.56H224.752V218.576H246.48V230H208.176ZM278.93 231.232C273.479 231.232 268.925 230.187 265.266 228.096C261.607 225.931 258.845 222.795 256.978 218.688C255.111 214.581 254.066 209.541 253.842 203.568L268.066 200.768C268.215 204.277 268.626 207.376 269.298 210.064C270.045 212.752 271.127 214.843 272.546 216.336C274.039 217.755 275.981 218.464 278.37 218.464C281.058 218.464 282.962 217.68 284.082 216.112C285.202 214.469 285.762 212.416 285.762 209.952C285.762 205.995 284.866 202.747 283.074 200.208C281.282 197.669 278.893 195.131 275.906 192.592L264.482 182.512C261.271 179.749 258.695 176.688 256.754 173.328C254.887 169.893 253.954 165.675 253.954 160.672C253.954 153.504 256.045 147.979 260.226 144.096C264.407 140.213 270.119 138.272 277.362 138.272C281.618 138.272 285.165 138.944 288.002 140.288C290.839 141.557 293.079 143.349 294.722 145.664C296.439 147.979 297.709 150.629 298.53 153.616C299.351 156.528 299.874 159.627 300.098 162.912L285.986 165.376C285.837 162.539 285.501 160 284.978 157.76C284.53 155.52 283.671 153.765 282.402 152.496C281.207 151.227 279.415 150.592 277.026 150.592C274.562 150.592 272.658 151.413 271.314 153.056C270.045 154.624 269.41 156.603 269.41 158.992C269.41 162.053 270.045 164.592 271.314 166.608C272.583 168.549 274.413 170.565 276.802 172.656L288.114 182.624C291.847 185.76 295.021 189.456 297.634 193.712C300.322 197.893 301.666 202.971 301.666 208.944C301.666 213.275 300.695 217.12 298.754 220.48C296.887 223.84 294.237 226.491 290.802 228.432C287.442 230.299 283.485 231.232 278.93 231.232ZM311.874 230V139.28H328.226V230H311.874ZM365.005 231.232C359.032 231.232 354.291 229.963 350.782 227.424C347.272 224.885 344.734 221.301 343.166 216.672C341.672 211.968 340.926 206.443 340.926 200.096V169.632C340.926 163.136 341.672 157.536 343.166 152.832C344.659 148.128 347.272 144.544 351.006 142.08C354.814 139.541 360.04 138.272 366.686 138.272C372.883 138.272 377.811 139.317 381.47 141.408C385.128 143.499 387.742 146.523 389.31 150.48C390.952 154.363 391.774 159.104 391.774 164.704V169.408H375.982V164.256C375.982 161.344 375.758 158.843 375.31 156.752C374.936 154.661 374.115 153.093 372.846 152.048C371.651 150.928 369.672 150.368 366.91 150.368C363.998 150.368 361.87 151.077 360.526 152.496C359.256 153.915 358.435 155.781 358.062 158.096C357.763 160.411 357.614 162.949 357.614 165.712V203.68C357.614 206.816 357.875 209.541 358.398 211.856C358.92 214.171 359.891 215.963 361.31 217.232C362.728 218.427 364.744 219.024 367.358 219.024C370.046 219.024 372.099 218.352 373.518 217.008C374.936 215.664 375.907 213.797 376.43 211.408C377.027 209.019 377.326 206.181 377.326 202.896V194.384H367.582V183.968H392.222V230H381.582L380.35 221.04C379.155 224.027 377.326 226.491 374.862 228.432C372.472 230.299 369.187 231.232 365.005 231.232ZM404.832 230V139.28H416.368L438.432 191.024V139.28H452.096V230H441.12L418.944 175.792V230H404.832Z" fill="white"/>
<path d="M221.752 276H257.687L249 304.5L213 305L221.752 276Z" fill="#8782CE"/>
</g>
<defs>
<clipPath id="clip0_11_53">
<rect width="600" height="300" fill="white"/>
</clipPath>
</defs>
</svg>
