<svg width="600" height="300" viewBox="0 0 600 300" fill="none" xmlns="http://www.w3.org/2000/svg">
<path d="M125.682 207.162C125.682 221.721 117.874 229 102.258 229H72.368V153.238H101.648C109.375 153.238 115.109 154.824 118.85 157.996C122.591 161.087 124.462 166.048 124.462 172.88C124.462 179.712 121.656 184.917 116.044 188.496V189.228C122.469 191.749 125.682 197.727 125.682 207.162ZM97.378 215.458C99.818 215.458 101.445 214.929 102.258 213.872C103.153 212.733 103.6 210.456 103.6 207.04C103.6 203.543 103.153 201.103 102.258 199.72C101.363 198.256 99.7367 197.524 97.378 197.524H93.474V215.458H97.378ZM97.5 185.69C99.3707 185.69 100.672 185.121 101.404 183.982C102.136 182.843 102.502 180.851 102.502 178.004C102.502 175.076 102.095 173.043 101.282 171.904C100.55 170.684 99.2487 170.074 97.378 170.074H93.474V185.69H97.5ZM145.582 230.22C135.904 230.22 131.064 224.852 131.064 214.116V170.562H151.804V209.114C151.804 211.147 152.699 212.164 154.488 212.164C156.766 212.164 158.677 211.595 160.222 210.456V170.562H180.718V228.756H161.32V224.486H160.832C156.359 228.309 151.276 230.22 145.582 230.22ZM232.056 185.812L231.446 211.066C231.446 212.611 231.812 213.669 232.544 214.238C233.357 214.726 234.699 214.97 236.57 214.97L234.74 229.732C230.022 230.057 227.42 230.22 226.932 230.22C220.913 230.22 217.09 228.146 215.464 223.998H214.854C211.844 228.146 207.208 230.22 200.946 230.22C196.147 230.22 192.446 228.675 189.844 225.584C187.322 222.493 186.062 218.264 186.062 212.896C186.062 206.145 188.136 201.469 192.284 198.866C196.513 196.263 203.142 194.555 212.17 193.742V190.814C212.17 188.537 211.031 187.398 208.754 187.398C204.85 187.398 198.75 188.577 190.454 190.936L187.404 173.124C197.814 170.44 206.476 169.098 213.39 169.098C220.303 169.098 225.142 170.44 227.908 173.124C230.673 175.808 232.056 180.037 232.056 185.812ZM208.51 215.946C211.519 215.946 213.024 214.36 213.024 211.188V205.21C210.014 205.617 207.859 206.267 206.558 207.162C205.338 207.975 204.728 209.399 204.728 211.432C204.728 214.441 205.988 215.946 208.51 215.946ZM241.15 215.58V150.798H261.28V209.114C261.28 210.497 261.565 211.473 262.134 212.042C262.785 212.611 263.883 212.896 265.428 212.896L263.842 230.22H257.132C251.764 230.22 247.738 229.122 245.054 226.926C242.452 224.649 241.15 220.867 241.15 215.58ZM313.667 185.812L313.057 211.066C313.057 212.611 313.423 213.669 314.155 214.238C314.968 214.726 316.31 214.97 318.181 214.97L316.351 229.732C311.634 230.057 309.031 230.22 308.543 230.22C302.524 230.22 298.702 228.146 297.075 223.998H296.465C293.456 228.146 288.82 230.22 282.557 230.22C277.758 230.22 274.058 228.675 271.455 225.584C268.934 222.493 267.673 218.264 267.673 212.896C267.673 206.145 269.747 201.469 273.895 198.866C278.124 196.263 284.753 194.555 293.781 193.742V190.814C293.781 188.537 292.642 187.398 290.365 187.398C286.461 187.398 280.361 188.577 272.065 190.936L269.015 173.124C279.426 170.44 288.088 169.098 295.001 169.098C301.914 169.098 306.754 170.44 309.519 173.124C312.284 175.808 313.667 180.037 313.667 185.812ZM290.121 215.946C293.13 215.946 294.635 214.36 294.635 211.188V205.21C291.626 205.617 289.47 206.267 288.169 207.162C286.949 207.975 286.339 209.399 286.339 211.432C286.339 214.441 287.6 215.946 290.121 215.946ZM355.702 229.122C349.683 229.854 344.437 230.22 339.964 230.22C335.572 230.22 332.115 229.081 329.594 226.804C327.154 224.445 325.934 220.419 325.934 214.726V186.422H320.078V171.294H326.91L328.008 160.07H346.43V171.294H357.288L356.434 186.422H346.308V210.7C346.308 212.408 347.121 213.262 348.748 213.262C348.91 213.262 351.432 213.14 356.312 212.896L355.702 229.122Z" fill="white"/>
<path d="M110.2 133H72.28V58.48H92.8V116.32H111.4L110.2 133ZM163.877 75.52L148.997 134.68C147.477 140.6 145.237 144.72 142.277 147.04C139.317 149.44 134.477 150.64 127.757 150.64H115.757L113.957 135.16H120.677C123.397 135.16 124.757 134.08 124.757 131.92C124.757 131.44 124.597 130.4 124.277 128.8L110.477 75.52H131.837L137.237 111.4H138.317L144.197 75.52H163.877ZM187.554 79.72C191.954 75.96 196.794 74.08 202.074 74.08C207.354 74.08 211.034 75.32 213.114 77.8C215.274 80.2 216.354 83.84 216.354 88.72V133H195.954V95.56C195.954 93.56 195.074 92.56 193.314 92.56C191.074 92.56 189.194 93.12 187.674 94.24V133H167.514V75.52H185.874L187.074 79.72H187.554ZM274.41 133.72L266.37 134.2C260.21 134.2 256.45 132.16 255.09 128.08H254.49C251.85 132.16 247.81 134.2 242.37 134.2C235.17 134.2 230.09 131.68 227.13 126.64C224.25 121.6 222.81 114.12 222.81 104.2C222.81 94.2 224.45 86.68 227.73 81.64C231.01 76.6 235.73 74.08 241.89 74.08C246.13 74.08 249.41 75.08 251.73 77.08V56.08H271.77V115.36C271.77 116.88 272.09 117.92 272.73 118.48C273.37 118.96 274.53 119.2 276.21 119.2L274.41 133.72ZM247.17 91C245.49 91 244.37 92.04 243.81 94.12C243.25 96.12 242.97 99.04 242.97 102.88C242.97 106.64 243.01 109.2 243.09 110.56C243.17 111.92 243.33 113.32 243.57 114.76C243.89 116.12 244.33 117.08 244.89 117.64C245.53 118.12 246.53 118.36 247.89 118.36C249.33 118.36 250.81 118 252.33 117.28V92.44C250.65 91.48 248.93 91 247.17 91ZM279.757 104.08C279.757 93.52 281.757 85.88 285.757 81.16C289.837 76.44 296.157 74.08 304.717 74.08C313.357 74.08 319.637 76.4 323.557 81.04C327.477 85.68 329.437 93.32 329.437 103.96C329.437 114.52 327.517 122.2 323.677 127C319.837 131.8 313.557 134.2 304.837 134.2C296.117 134.2 289.757 131.8 285.757 127C281.757 122.2 279.757 114.56 279.757 104.08ZM308.557 92.68C308.077 91.08 306.797 90.28 304.717 90.28C302.637 90.28 301.317 91.08 300.757 92.68C300.197 94.28 299.917 97.64 299.917 102.76V105.64C299.917 111.32 300.197 115 300.757 116.68C301.317 118.36 302.597 119.2 304.597 119.2C306.677 119.2 307.997 118.36 308.557 116.68C309.117 115 309.397 111.56 309.397 106.36V102.88C309.397 97.68 309.117 94.28 308.557 92.68ZM355.718 79.72C360.118 75.96 364.958 74.08 370.238 74.08C375.518 74.08 379.198 75.32 381.278 77.8C383.438 80.2 384.518 83.84 384.518 88.72V133H364.118V95.56C364.118 93.56 363.238 92.56 361.478 92.56C359.238 92.56 357.358 93.12 355.838 94.24V133H335.678V75.52H354.038L355.238 79.72H355.718Z" fill="white"/>
<path d="M368.5 219.48C368.5 215.747 369.48 212.993 371.44 211.22C373.4 209.353 376.527 208.42 380.82 208.42C385.113 208.42 388.24 209.353 390.2 211.22C392.16 212.993 393.14 215.84 393.14 219.76C393.14 226.947 389.033 230.54 380.82 230.54C372.607 230.54 368.5 226.853 368.5 219.48ZM427.146 186.44C427.146 194.653 427.939 200.533 429.526 204.08C431.206 207.533 433.912 209.26 437.646 209.26C441.379 209.26 446.652 208.373 453.466 206.6L457.106 226.34C449.732 229.047 442.312 230.4 434.846 230.4C423.646 230.4 415.479 226.713 410.346 219.34C405.306 211.873 402.786 200.813 402.786 186.16C402.786 171.413 405.446 160.167 410.766 152.42C416.086 144.58 424.766 140.66 436.806 140.66C443.899 140.66 450.666 142.153 457.106 145.14L453.326 166.84C446.046 164.413 440.959 163.2 438.066 163.2C433.959 163.2 431.112 165.02 429.526 168.66C427.939 172.207 427.146 178.133 427.146 186.44ZM468.188 151.16C473.601 144.16 482.421 140.66 494.648 140.66C506.874 140.66 515.601 144.113 520.828 151.02C526.148 157.927 528.808 169.173 528.808 184.76C528.808 200.253 526.101 211.733 520.688 219.2C515.274 226.667 506.501 230.4 494.368 230.4C482.234 230.4 473.508 226.713 468.188 219.34C462.868 211.967 460.208 200.533 460.208 185.04C460.208 169.453 462.868 158.16 468.188 151.16ZM504.728 184.76C504.728 176.173 504.028 170.387 502.628 167.4C501.321 164.32 498.568 162.78 494.368 162.78C490.261 162.78 487.601 164.32 486.388 167.4C485.174 170.387 484.568 176.127 484.568 184.62V187.98C484.568 197.033 485.221 203.007 486.528 205.9C487.928 208.7 490.681 210.1 494.788 210.1C498.988 210.1 501.694 208.747 502.908 206.04C504.121 203.333 504.728 197.733 504.728 189.24V184.76Z" fill="white"/>
</svg>
